/* XPM */
static char *_d6e7dd078be4f7fae056e898d8f4fc81p4nEehRkwWXJZ4s[] = {
/* columns rows colors chars-per-pixel */
"60 60 130 2 ",
"   c None",
".  c #353C47",
"X  c #373E48",
"o  c #383F4A",
"O  c #3B424C",
"+  c #3E4650",
"@  c #364952",
"#  c #3C4953",
"$  c #40434C",
"%  c #404751",
"&  c #4B4650",
"*  c #434A54",
"=  c #4A4B55",
"-  c #484F59",
";  c #524A55",
":  c #5A4B56",
">  c #4E555E",
",  c #604B56",
"<  c #6A4C57",
"1  c #734D58",
"2  c #7E4D59",
"3  c #505761",
"4  c #545B64",
"5  c #595E67",
"6  c #5C636C",
"7  c #63636C",
"8  c #606770",
"9  c #656C74",
"0  c #696D75",
"q  c #696F78",
"w  c #6B7078",
"e  c #72757D",
"r  c #864E5A",
"t  c #8C4E5B",
"y  c #924F5B",
"u  c #994F5C",
"i  c #AB4A56",
"p  c #BB4A57",
"a  c #A2505C",
"s  c #AB505D",
"d  c #BC515F",
"f  c #D54D5A",
"g  c #DC4E5C",
"h  c #DF505E",
"j  c #E2515F",
"k  c #CB5260",
"l  c #D35361",
"z  c #DB5362",
"x  c #E45362",
"c  c #ED5564",
"v  c #ED5866",
"b  c #ED5C6A",
"n  c #F45564",
"m  c #FA5565",
"M  c #CB737E",
"N  c #EE6472",
"B  c #EF6976",
"V  c #E76C78",
"C  c #EF6C79",
"Z  c #F06F7B",
"A  c #F1717E",
"S  c #757B83",
"D  c #DB7782",
"F  c #EF7783",
"G  c #F07682",
"H  c #F87683",
"J  c #F17984",
"K  c #7B8088",
"L  c #848991",
"P  c #888E95",
"I  c #8B9097",
"U  c #8D9299",
"Y  c #979BA2",
"T  c #999DA4",
"R  c #9EA3A9",
"E  c #A2A7AD",
"W  c #A4A8AF",
"Q  c #A5A9B0",
"!  c #A9ADB3",
"~  c #AEB2B8",
"^  c #B1B5BB",
"/  c #B5B9BE",
"(  c #B7BBC1",
")  c #B7BCC1",
"_  c #BABEC3",
"`  c #BCC0C5",
"'  c #BFC2C8",
"]  c #C4C4C8",
"[  c #C0C4C9",
"{  c #C8CCD1",
"}  c #CCCDD1",
"|  c #D0CFD3",
" . c #CED1D5",
".. c #D1D2D6",
"X. c #D4D7DC",
"o. c #D4D6DA",
"O. c #D4D8DC",
"+. c #D5D8DD",
"@. c #D6D9DD",
"#. c #D9DBDF",
"$. c #D9DCE1",
"%. c #DBDEE2",
"&. c #E0DFE3",
"*. c #DDE0E5",
"=. c #E0E3E7",
"-. c #E1E4E8",
";. c #E2E5E9",
":. c #E4E7EB",
">. c #E3E6EA",
",. c #EAE7EB",
"<. c #E5E8EC",
"1. c #E5E8ED",
"2. c #E6E8ED",
"3. c #E6E9ED",
"4. c #E6E9ED",
"5. c #E8EBEF",
"6. c #E9EBEF",
"7. c #E9EAEE",
"8. c #E9ECF0",
"9. c #ECEEF2",
"0. c #EBEDF1",
"q. c #EEF1F5",
"w. c #EEF1F5",
"e. c #F0F3F7",
"r. c #F1F3F7",
"t. c #F2F5F8",
"y. c #F5F7FB",
"u. c #F1F4F8",
"i. c #F6F8FC",
"p. c #F9FCFF",
/* pixels */
"                                                f h g x c c c v b N Z G                                                 ",
"                                          f g j c c c c c c c c c c c b N C G                                           ",
"                                    f f h c c n c c c c c c c c c c c c c c c N G J                                     ",
"                                f f j c c c c c c c c c c c c c c c c c c c c c c N G J                                 ",
"                            f f h c c c c c c c v c c c c c c c c c c c c c c c c c c B J G                             ",
"                          f f x c c c c c c c c c c c c c c c c c c v c c c c c c c n j b G J                           ",
"                      f f f c c c c c c c c c c c c c c c c c c c c c v c c v c c c c c c c Z J G                       ",
"                    f f h c c c c c c c c c c c c c c c c c c c c c n c c c c c c c c c c c c B J G                     ",
"                  f f j c c c c c c c c c c c c c c c c c c c c c c c c c c c c c c c c c c c c B G G                   ",
"                f f h n c c c c c c c c c c c c c c c c c v c c c c v c c c c c c c c c c c c c c B J G                 ",
"              f f g c c c c c c c c c c c c c c c c c c c c c c c c c v c v c n c c c c c c c c c c C J G               ",
"            f f f c c c c c c c c c c c c c c c c v c n c v c c c c n c c c c c c c c c c c c c c c c A J G             ",
"            f f c c c c c c c c n c c b c c c c c n c c c c c c c c c c c c c c c c n c v c c c c c c c F G             ",
"          f f j c c c c c c c c c c c c c c c c c c c c c n v c c c c c c c c c c c c c c c c c c c c c N J G           ",
"        f f g c c c c c c c c c c c c c c v c c c v c c c c c c c v c c c c c c c c c c n c c c c c c c c Z G G         ",
"        f f x c c c c c c c c c c c c c c c c c c c v c c c c c c c c n v c c v c c c c c c c c c c c c c b J G         ",
"      f f g c c v c c c v c c c c c c c c c c c c c c c c c c c c c c c c c c c c c c c v c c c c c c n c c Z G G       ",
"      f f j c c c c c c c c c c c c c c c c c c v c c c c c c c c c c c c c c c c c v c c c c c c c c c c c b G G       ",
"    f f g c c c c c c n c c c c c c c c c c c c c c x c c c c c c c c c c c c c c c c c c c c c c c c c c c n Z J G     ",
"    f f x c c c c c c c c c c c c c n c c c c c c n m n c x j c n m c c c c c c c c c c c c c c c c c c c c j N J G     ",
"    f f c c c c c c c c c c c c c c c c c c c c m z a 1 : ; ; : 1 a z m c c c c c c c c c c c c c c c c c c c c F G     ",
"  f f g c c c c c c c c c c c c c c c c c c n x t * @ # # # # # # @ * t x n c c c c c c c c n c c c c c c c c c C J G   ",
"  f f j c c c c n c c v c c c c c c n c x m l : @ * * * * * * * * * % @ : k n c c c c v c c c c c c c c c c c c N J G   ",
"  f f c c c c c c c c c c c c c b c v c n k * # * * * * * * * * * * * = # * k n c c c c c c c v n c c c c c c c b J G   ",
"f f f c n c c c c c c c c c c c c c c n x ; # * % * * * * * * * * * * % * # ; x c c c c c c c c c c c c c c c c n A J F ",
"h f f c c c c x c c c c c c c c c c c n 2 @ = * * * * + o + o o + * * * * * @ 2 n x c c c c c c c c c c x c c c j Z H H ",
"i p f n n n n m n n n c c c c c x c n k # * * * * * o 4 Y ( _ T 4 O * * * * * # k n c c c c c c c n n n n m n n n V D M ",
"O O & : 1 r u s d k l x x c n n n n m r @ * * % * o S >.u.u.9.u.;.S O * % * * # t m n n n n c x x l k d s u r 1 , 7 0 9 ",
"$ O + # # # @ @ # # * = : , < 1 2 r y = # * * * O 8 5.5.;.2.>.;.8.1.8 O * * * * ; y t 2 1 < , : = * # # # @ @ # # 4 w 0 ",
"O O % * * * * % * * % * # # # # # @ # % * * * * O ^ t.;.2.2.2.2.;.r.^ O * * % * % @ @ @ # # # # % * * * * * * * % 4 q q ",
"O O % * * * * * * * * * * * * * * * * * % * * % - O.5.1.<.1.1.2.<.5.X.- * * * % * * % * * * * * * * * * * * * * $ 5 0 0 ",
"O O % - * * * * * * * * * * * * * * * % * * * % > $.5.<.<.1.1.2.1.8.$.> + * * * * * * * * * * * * * * * * * - * * 5 w q ",
"= O X X O X O O $ % * * * * * * * * = * % * * * % { 8.<.1.1.1.1.<.w.{ $ * * * * * * * * * * * * * * % O O O O X X 4 q e ",
"] / ! W U K q 6 > > % O O O X O X O O # * % * * O I y.;.<.<.<.<.=.y.I O * * * * # O X X O X O O O % > > 6 w K U R ` O.&.",
"..o.#.t.t.r.w.<.*.O.{ ` ~ Q T U L S S 3 % * * * * % _ y.5.<.1.1.i.` % % * * % # 3 S K L U T W ^ ` { o.*.1.9.w.t.r.t.r.7.",
"}  ...;.<.=.<.<.5.8.w.w.u.q.u.u.r.w.p.E O * % * * % * R *.8.9.*.R * % * % * * X W p.w.r.u.u.r.w.w.w.5.5.5.1.<.;.:.5.7.,.",
"  .. .=.1.1.<.<.<.<.:.<.:.:.:.;.<.=.5.=.4 O * % % * * O > q q > O # * * % * O 4 =.<.=.:.:.:.:.:.<.:.:.<.<.<.<.<.,.9.9.  ",
"  |  .$.5.1.<.5.<.<.<.5.1.1.1.1.<.<.:.r.^ O * * * * * * # O O # * * * * * - O ~ r.:.5.<.1.1.1.<.5.<.<.<.<.5.1.<.5.5.7.  ",
"  |  .o.1.<.<.1.5.<.<.<.5.<.5.1.5.<.<.:.r.P . * * % * * % * * * * * % * * . P q.:.<.<.5.<.<.1.5.5.<.<.<.<.5.5.<.5.9.7.  ",
"     .o.<.<.<.1.5.<.5.<.<.<.5.1.1.1.1.<.<.9.L X % - * * * * * * * * = % O L 8.:.<.<.<.<.5.5.<.<.<.<.5.5.<.<.<.1.6.9.    ",
"     . .*.5.<.<.<.<.<.5.<.<.<.5.<.5.<.<.<.5.w.E - X # * * * * * * O X - E w.5.<.<.<.<.5.<.<.<.5.<.<.5.5.<.<.<.1.9.7.    ",
"    |  .o.1.<.<.<.5.<.5.<.5.<.<.<.5.<.<.<.<.:.r.O.I 4 + O X O O % 4 I o.r.:.<.<.<.5.<.5.<.5.<.<.5.<.<.<.<.5.,.5.9.7.    ",
"      .. .=.5.<.<.<.<.<.5.<.5.<.<.<.5.<.<.<.<.:.8.t.=.[ W Y Y W [ =.t.5.:.<.<.<.<.<.<.<.5.<.5.<.5.<.<.<.<.:.5.9.7.      ",
"      .. .o.1.<.5.<.5.<.<.<.5.<.5.<.<.<.<.5.<.<.:.:.1.w.w.t.q.t.w.5.:.:.<.<.5.<.<.5.5.<.<.<.5.<.<.<.5.5.5.:.5.6.7.      ",
"         . .=.5.<.<.5.<.<.<.5.<.<.<.5.5.5.<.<.<.:.5.<.:.:.:.:.:.<.<.1.<.<.5.<.<.<.5.5.<.<.<.5.<.<.<.1.<.,.5.9.0.        ",
"        .. .o.1.<.<.<.<.5.<.5.<.5.<.<.<.<.<.5.5.1.1.1.<.<.<.<.<.<.1.1.1.<.5.<.5.<.<.<.<.5.<.5.<.5.<.5.<.:.7.0.7.        ",
"           . .#.5.<.5.<.<.5.<.<.5.<.<.<.<.5.<.<.5.<.5.<.<.5.<.5.5.<.5.<.<.<.5.<.5.<.<.5.<.5.<.<.5.:.5.:.5.9.7.          ",
"             .o.=.3.<.<.<.<.<.5.<.<.5.5.<.<.5.<.<.<.5.<.<.5.<.<.<.<.5.<.5.<.<.<.5.<.<.5.<.<.<.5.<.1.:.1.9.5.            ",
"            |  .o.:.1.<.<.5.5.<.<.5.<.<.5.5.<.<.<.<.5.5.<.<.5.<.<.5.<.<.5.5.<.<.5.<.<.<.5.<.5.<.<.<.5.6.9.,.            ",
"              .. .O.5.<.<.<.<.<.<.<.5.<.<.<.<.5.5.<.<.<.<.5.<.<.<.<.5.<.<.<.<.5.<.<.5.<.5.<.<.<.<.<.6.6.7.              ",
"                |  .@.5.<.<.<.:.5.5.<.<.<.<.<.5.5.<.<.<.<.<.5.5.5.5.<.<.<.<.<.5.<.5.<.5.<.<.5.<.<.5.5.7.                ",
"                  .. .@.5.<.<.5.:.<.<.5.5.5.<.<.<.<.5.5.5.<.<.<.<.<.<.5.5.5.<.<.<.5.<.<.<.<.<.<.5.w.7.                  ",
"                    |  .@.5.1.1.<.5.<.5.<.<.<.5.5.<.<.<.<.<.<.5.5.<.<.<.<.<.<.5.5.<.<.<.1.<.,.6.9.7.                    ",
"                      |  .o.<.1.:.<.<.<.<.5.<.<.<.<.5.<.5.5.<.<.<.<.5.5.<.5.<.<.1.<.5.<.<.5.5.9.,.                      ",
"                           ...=.5.<.<.<.5.<.5.<.<.5.<.5.<.<.5.<.<.5.<.<.5.<.5.<.5.<.1.,.5.5.6.                          ",
"                            }  .@.:.5.<.:.<.<.<.<.5.<.<.<.5.<.<.<.<.5.<.<.<.5.<.<.<.1.6.6.7.                            ",
"                                | ..$.<.5.1.<.:.<.<.1.1.,.5.<.5.5.<.,.5.1.,.<.<.<.5.6.6.                                ",
"                                    } ..$.:.5.5.5.<.<.<.<.<.<.<.<.<.<.<.<.1.5.5.5.5.                                    ",
"                                          | O.%.-.:.5.1.5.<.,.<.3.3.3.3.5.5.5.                                          ",
"                                                | o.#.*.=.=.<.,.<.3.,.,.                                                "
};
