/* XPM */
static char *_57ee4f4058d42a49be318448df8734fEhtONZmzP2aHhpxU[] = {
/* columns rows colors chars-per-pixel */
"60 60 236 2 ",
"   c None",
".  c black",
"X  c #160F3C",
"o  c #0A0A55",
"O  c #0C0C5A",
"+  c #120454",
"@  c #120D5C",
"#  c #140858",
"$  c #13105F",
"%  c #12004D",
"&  c #1A0D69",
"*  c #141160",
"=  c #1A1566",
"-  c #1B156C",
";  c #191766",
":  c #1B1573",
">  c #1E1973",
",  c #1A1475",
"<  c #180E74",
"1  c #221B6C",
"2  c #240E70",
"3  c #241374",
"4  c #211976",
"5  c #241B7A",
"6  c #2A1E7D",
"7  c #2A1876",
"8  c #142A77",
"9  c #162D77",
"0  c #26227F",
"q  c #382E7B",
"w  c #4D377D",
"e  c #5A557E",
"r  c #2A1E83",
"t  c #291A88",
"y  c #341A86",
"u  c #341D8A",
"i  c #341786",
"p  c #391E95",
"a  c #173B86",
"s  c #193F99",
"d  c #2D2184",
"f  c #232B86",
"g  c #2E218A",
"h  c #232986",
"j  c #32248D",
"k  c #382989",
"l  c #342690",
"z  c #3B2594",
"x  c #3B2A94",
"c  c #3D2B9C",
"v  c #382798",
"b  c #253997",
"n  c #343397",
"m  c #2A3189",
"M  c #3E36A5",
"N  c #3B3BA8",
"B  c #3E2FA0",
"V  c #421F97",
"C  c #402D8F",
"Z  c #44398A",
"A  c #45259B",
"S  c #422B9D",
"D  c #462799",
"F  c #4B329C",
"G  c #473595",
"H  c #523A9D",
"J  c #432DA1",
"K  c #562EA6",
"L  c #4433A4",
"P  c #4C34A3",
"I  c #4B37AB",
"U  c #5234A3",
"Y  c #563CA1",
"T  c #5435A9",
"R  c #5B35AA",
"E  c #543AAD",
"W  c #5B3BAD",
"Q  c #5A33A6",
"!  c #5A3DB1",
"~  c #573DB0",
"^  c #623CAD",
"/  c #6536AB",
"(  c #643DB1",
")  c #194998",
"_  c #194D91",
"`  c #23469A",
"'  c #1954A7",
"]  c #1F49A2",
"[  c #2947A6",
"{  c #3A42AC",
"}  c #384CB4",
"|  c #295BB5",
" . c #325ABE",
".. c #3753B9",
"X. c #2955AA",
"o. c #196BB3",
"O. c #2A67BB",
"+. c #3866BC",
"@. c #2373BC",
"#. c #564A98",
"$. c #4B4096",
"%. c #645494",
"&. c #756A9B",
"*. c #5A44A5",
"=. c #5643B3",
"-. c #485BBD",
";. c #6343AC",
":. c #6547A9",
">. c #6543B4",
",. c #6B43B4",
"<. c #6B49B7",
"1. c #7245B6",
"2. c #744ABB",
"3. c #7D4CBE",
"4. c #7447B9",
"5. c #7955BA",
"6. c #6F5BA5",
"7. c #3A5DC3",
"8. c #1779CB",
"9. c #1D72C9",
"0. c #2A6CCB",
"q. c #2A68C7",
"w. c #3968C6",
"e. c #2B7BCA",
"r. c #3774CB",
"t. c #247AD6",
"y. c #2778D4",
"u. c #3173D3",
"i. c #346ED1",
"p. c #435CC3",
"a. c #565AC1",
"s. c #7E4EC0",
"d. c #7953C2",
"f. c #4F6BCB",
"g. c #6C76D5",
"h. c #834DBF",
"j. c #8E79A7",
"k. c #814EC1",
"l. c #8451C3",
"z. c #8955C7",
"x. c #835CC4",
"c. c #8D5BCA",
"v. c #8B56C9",
"b. c #945ECD",
"n. c #9D5FD0",
"m. c #8C63CA",
"M. c #9363CE",
"N. c #9564D1",
"B. c #9B65D3",
"V. c #9C6BD6",
"C. c #986BD6",
"Z. c #9C73DB",
"A. c #8B78DB",
"S. c #A26DD9",
"D. c #AA6AD9",
"F. c #A473DC",
"G. c #AA74DE",
"H. c #A071D7",
"J. c #B16EDC",
"K. c #AA76E1",
"L. c #AD79E3",
"P. c #A47CE2",
"I. c #B475E1",
"U. c #B27CE6",
"Y. c #B67AE5",
"T. c #1C80BB",
"R. c #1988DB",
"E. c #1B90CD",
"W. c #2586CA",
"Q. c #2184DC",
"!. c #298BD5",
"~. c #3987D9",
"^. c #2796DA",
"/. c #3693D7",
"(. c #2E8DCA",
"). c #1FA4DA",
"_. c #1C8BE1",
"`. c #149CEE",
"'. c #1994E6",
"]. c #139EF0",
"[. c #2C96E3",
"{. c #18A4ED",
"}. c #0FA8F7",
"|. c #08A5F8",
" X c #13A4F3",
".X c #12AAF6",
"XX c #18ADF4",
"oX c #13ABF9",
"OX c #11A7F8",
"+X c #1BB4F6",
"@X c #1CB9F7",
"#X c #16B4FA",
"$X c #1BBDFA",
"%X c #16B7FA",
"&X c #1FB3E4",
"*X c #27A9E6",
"=X c #35A9EA",
"-X c #25B5ED",
";X c #24BBF2",
":X c #26B7F1",
">X c #5188D8",
",X c #4D98E5",
"<X c #7198EB",
"1X c #48B6F6",
"2X c #56A9F0",
"3X c #63A5F0",
"4X c #7281DD",
"5X c #1DC3FC",
"6X c #1DCBFF",
"7X c #1BC5F9",
"8X c #1CD3FF",
"9X c #1EDAFF",
"0X c #14D8FF",
"qX c #0FC9FF",
"wX c #23C2F5",
"eX c #21C6F9",
"rX c #22CDFD",
"tX c #2BCBFC",
"yX c #22D3FF",
"uX c #21DBFF",
"iX c #30C2F3",
"pX c #1AE1FF",
"aX c #23E0FF",
"sX c #60C5E6",
"dX c #9287A5",
"fX c #A493AA",
"gX c #CDC7B2",
"hX c #B38BD2",
"jX c #8A8AE6",
"kX c #9B85E6",
"lX c #8792EA",
"zX c #B681EA",
"xX c #B882EB",
"cX c #A083E6",
"vX c #C8A7D4",
"bX c #A8D7D4",
/* pixels */
"                                                * * $ * * * * $ * * * $                                                 ",
"                                          $ * * * $ $ $ $ * * * * * * * * * *                                           ",
"                                    * * = $ $ $ $ @ O $ @ $ * = * * * * * $ * $ * $                                     ",
"                                * * * * o o o @ = 1 1 1 1 = $ o o o $ $ * * * * $ * * *                                 ",
"                            * * * O o = C *.5.M.Z.F.G.G.F.H.M.5.:.k 1 @ o $ * * * * * * * @                             ",
"                          * * o $ k 6.V.G.D.S.B.M.b.M.M.C.V.G.zXxXzXH.5.G : @ * $ $ * * * * *                           ",
"                      * * @ $ Z m.S.B.z.h.3.2.3.3.3.3.3.3.3.3.h.c.M.F.zXxXC.*.4 = * @ * * * * * *                       ",
"                    * @ O q x.B.z.3.3.3.h.l.z.z.k.k.l.l.l.l.x.h.3.3.h.c.S.U.xXC.H : = * @ * O * * *                     ",
"                  * O * :.b.l.3.3.h.l.z.s.,.^ U :.F S P P W ,.4.k.l.l.h.3.z.S.U.zXx.d - = @ e ; @ * *     rX            ",
"                6 = 1 5.c.3.h.k.l.h.,.P x j g g gX6.p c c c c S P ! 2.l.l.3.3.c.F.xXH.C : 1 ; * * * * *     rX          ",
"              6 > k l.l.3.k.l.k.^ x j t j v S J *.P J J J J S S S c J T 1.l.k.3.l.V.zXL.H : > $ * * * * *   rX          ",
"            5 4 k k.k.3.k.l.,.x g g j x S J J J c J S S J S J L S J J c S E 3.l.3.3.N.L.zXH : 4 * @ * $ * %   yX        ",
"            4 d 3.k.h.k.k.U g j j l S J J S A A A S J B S S A A J J J J J S J ,.z.3.3.N.L.U.H > > * @ * * *   aX        ",
"          4 6 2.k.3.l.2.D g j j G B J A A M } 0.t._.'._._.Q.0...M A A J J J J c ^ l.l.3.M.U.K.k 4 : * * * * o ).yX      ",
"        5 4 ,.l.s.l.2.z g l g x *.S A { y.'..X.XoX X X X X XoX}.`.t.} A A J J J c W l.3.3.N.zXN.5 5 - * * * @ ; uX      ",
"        > F l.h.k.3.x j j j x L A M t. X}. X X].].]. XXXXXXXXX X X}. XQ.{ A J J S c W l.l.h.H.xX:.> 5 = * * * + ).uX    ",
"      > k l.s.3.l.x g j j v S A ..`.oX].]. X].].+X5XyX8XyXyXyXtXrX@XXXOX].q.A S Y v L <.k.h.z.L.G.d 4 4 $ * * + _ uX    ",
"      4 ,.l.3.z.P g j j j L D 0.}. X]. X X].#X8XyX@X-X-X;XeX8X0XyXyXyXeXXX Xy.c :.j.6.j 2.l.3.N.xX4.: 6 - $ * @ 9 rX    ",
"    : C l.3.h.;.g j j j S A u.}.]. X X`.}.5X=Xr.a.d.M.C.Z.Z.jX3XiX8X8XrXrX@XoXt.Y fX%.t F l.3.l.L.F.0 4 5 * * $ * &XuX  ",
"    5 1.k.3.hXG u j g x A r.%X`. X]. X.X[.-./ c.S.F.S.V.Z.D.G.I.U.<XtX8XrXyX$X}.>Xz #.x g 1.l.3.C.xX*.: 5 - $ * # E.uX  ",
"    C z.3.c.*.j j j l A  .$X]. X`. XOXi.R 2.N.M.l.s.3.s.s.l.z.M.K.I.P.1X0XrXyX@X|...p j g U l.h.x.U.x.: 0 4 $ * + o.aX  ",
"  > ( k.z.d.t j j j z M ;X X X]. X X7.Q 2.c.k.2.s.k.s.s.2.2.2.2.k.N.I.I.3X8XrXrXXX'.L x g x 3.l.h.F.F.0 4 5 = * + _ uXyX",
"  k k.k.B.G j j j j A !.$X`. X X Xw.Q >.l.3.k.l.k.1./ R Q K A J W 4.b.G.I.1X0XyX7X}.7.A l g ,.l.3.C.U.C : 0 q $ # _ uXrX",
"  F l.c.5.r j j j u } yX X X`.oXu.R ( l.l.s.l.3.R =.p.i.~.~...J z L ,.c.U.P.tXyXrXoXR.S x g W l.3.c.xXH : 5 > * # 9 yXrX",
": ,.h.V.G t k l j z ^.5X`. X X'.~ E 2.l.s.s.s.( i.`.oXqX0XpXpX&X..A S ,.B.I.<X0XyX+X].{ S g U l.h.l.zX:.- 5 5 ; # 9 uXrX",
"k 4.z.M.0 k j l u { yX+X`. X Xp.R >.l.s.s.z.,.^.oXOX'.>X4X4X,XyXuX+.A J h.G.kXrXyX@X X .A j F l.3.h.zX<.: 5 5 ; + 9 uXrX",
"G 3.B.<.4 l j l i r.uX X]. X_.! E 2.l.3.z.l./.%X Xu.2.c.( R A L =X8X{ c ( B.I.1X9X@X}.i.A x D l.h.3.U.5.: 5 5 - # _ uX7X",
"Q h.F.G t l j j j *X6X]. X Xp.W =.k.l.2.n.g.8XoXu./ z.~ ! ! L J A -X*XV E c.I.2X0XiXsXy.D v F l.3.3.K.5.: 5 5 > % _ uX@X",
";.v.V.6 r j j u n rXeX].].`.=.E ,.k.s.z.S.=X6X'.I x.d.E E 7 X x A 7.5XB T z.J.3X0X1XbXQ.S c U l.h.3.L.<., 5 5 > % o.uX+X",
"1.B.m.: t j l y X.uX@X].OX_.T ~ 4.k.s.N.A.eX6Xu./ Z.>.~ 6 o . X B =.wXN T z.J.,X8XXX|.e.A c W z.s.3.U.;.: 5 5 > o @.uX'.",
"4.S.5.: j j l i O.aX%X`.}.0.Q ~ 4.k.s.D.4X0X6X7.( P.>.W 0 o . X J { ;XM ( v.S.=X6X`.}.0.A c ,.l.s.l.L.C : 5 5 > o ).0XR.",
"3.G.*.: d l j i W.9X+X`.}.7.Q E 2.k.s.D.<X8X6Xp.R K.2.W H 0 X x A w.!.D 2.b.M.-X$X`.}. .A P 3.k.s.k.hXdX5 5 5 - ; ;X6X8.",
"l.L.H - d j j i !.uX@X]..X..K ~ 4.k.s.J.<X8XyXf.P C.Z.E ~ =.I A L {.{ ( h.n.f.7X X X].N S W l.k.s.v.vXgX5 5 5 & a uX+Xo.",
"l.L.G : r j j i !.uX@X]. X} P E 4.k.s.G.lX8XyX/.K >.L.C.=.~ B } ^.7./ l.z.3.!.+X]. XQ.A J 4.k.k.s.V.<.< 5 5 r # o.yX].) ",
"c.G.x : 6 j G %./.uXwX{.}.} J W >.k.3.S.cXtX8XeX~ R d.U.kXg.g.>Xg.h.l.l.1....X X].OX..A E l.k.k.l.H.D > 5 5 5 * &X$X'.8 ",
"c.U.C : 0 j $.j.(.uXeX{.}.7.A E >.l.2.N.I.1X8XyX[.R R a.Z.U.U.G.n.z.d./ N '. X`..XR.A J 2.l.k.3.c.x.5 5 5 5 3 _ 6XOX8.o ",
"c.L.C > 5 u x i +.uXrXXX}.0.A I ! 3.s.z.I.jXyXrX9X[.~ K E <.>.( / Q D N '.oX X X XN c ,.l.k.k.3.C.F 5 5 4 6 2 E.5XOX'   ",
"c.U.G > 5 d j y [ yXyX+X|.Q.A J E >.l.3.V.I.3X0XtXuX:Xf.~ T A c c M 0. X X].].oX7.V W k.h.k.3.c.d.r 5 5 5 3 a 7X X X8   ",
"M.U.Y : 5 r j j l wXyX5X X].L S I W 3.h.z.G.I.1X0XrXyXyX#X[.t.t._.]. X].].XX5Xw.p W k.k.k.s.h.c.C t 5 5 5 3 E.+XOX8.#   ",
"  U.:.: 5 5 g l k ^.9XrXXX X .A J T >.k.3.c.L.I.3X8X0XrXyX8X5X%X#XXXXX$X6XeX .A ,.k.k.k.k.s.c.Y t 6 : > 3 ` $X`.oXa     ",
"  U.5.: 5 4 r l i O.uXyX@X XQ.S S L E 4.l.3.v.P.Y.jX1X8X8X0XyXuXuXaXuXeX!.N / x.z.s.k.k.s.v.;.u g < %.&.* {. X XR.$     ",
"  U.C.5 5 5 5 j u n eXyXyX X X..A J v T 2.l.3.z.V.I.U.kX3X1X=X*X*X!.w.=.( v.N.l.s.k.k.k.l.;.g g 5 > $.w o.XX`..Xa +     ",
"    L.k 4 5 4 r g i W.uXrX5X X'.L v g l I 2.l.3.h.c.V.G.I.I.G.S.B.n.S.F.S.v.2.k.k.k.k.l.W d l 5 5 5 & s oX`.oXR.@       ",
"    U.H : 6 5 5 g j n rXrXyXXX}.0.i l j j c ,.l.l.3.3.l.v.n.B.S.V.B.v.h.3.h.l.3.k.l.3.F t l r 5 5 3 f  X X X X8 @       ",
"    zXm.: 5 5 4 6 j y e.uXrXrX X X| i l j g l P 1.l.l.k.h.3.3.2.3.3.3.h.l.h.l.l.l.^ x t l r 5 5 3 f '. X`.#X' +         ",
"      U.d 4 5 5 4 r j j -XuXyXeX X X| i l j j g j G ( s.l.l.l.l.h.h.k.x.l.l.3.^ D g j l d 5 5 3 f '.}.`.oX8.@ *         ",
"      U.m.: 6 4 5 5 t u [ yXyXyX6X XoX| u j l j j g j z P W ,.4.2.4.4./ 6.H j g g j j r 5 5 3 b '.}.`..X'.* @           ",
"        xX  5 5 6 4 3 k i | 8XrXrXrX XoX8.l i l j j j j g d g j k j x x &.#.x j j j 5 5 4 3 ' `..X`. X`.8 O             ",
"        K.  & 5 5 5 5 5 j i O.uXrXrXrXXX}.'.X.y y l l l j l j j g j x #.dX6.G k d 5 4 2 f 8.oX X`. X{.9 @ ;             ",
"          L.  5 5 5 5 4 5 d y | yXyXrXyX+X XOXR.[ u y u j l l l j l l t #.l t 5 3 3 h 9. XoX X`.oX{.9 @ *               ",
"          K.    5 5 5 5 5 5 d i [ ;X9XrXyXrXXXOXOX_.| b j u i i y y r 7 7 3 > f ] 8. X}. X`.].%X*Xf & *                 ",
"            K.    5 5 5 5 5 > k fXn ^.uXyXrXrX$XXXOXOX]._.9.| ' ) b ` ] ' o.R.`.oXoX].`.`.#X5XW.4 3 5                   ",
"                    5 5 5 5 5 5 Z r i | :X9XuXyXrXrX+XXX XOX}. X X XoX XoXoX X].`.{. X7X8X*X` 2 5 5                     ",
"                      5 4 5 5 5 : 5 5 7 j O.:XuXuXyXyXrX6X$X+XXXXX X X{. X XXX+X5X8XuX*XX.4 3 5 5                       ",
"                          5 5 5 5 5 5 5 5 7 t X.^.;XuXpXuXuXuXyXyX8X8XyXyXuXuXuX;XW.` 4 2 4 5                           ",
"                            5 5 5 5 5 5 5 5 4 3 7 h ` @.^.*X;XeXrXeXwXwX*X^.@.` h 2 3 5 5 4                             ",
"                                5 5 5 5 5 5 5 5 5 4 3 2 3 4 0 h f f h 0 5 2 2 3 5 5 5 5                                 ",
"                                    5 5 5 5 5 5 5 5 5 5 5 5 4 3 5 3 3 5 5 5 5 5 5 5                                     ",
"                                          5 5 5 5 5 5 5 5 5 5 5 5 5 5 5 5 5 5                                           ",
"                                                4 5 5 5 5 5 5 5 5 5 5 5                                                 "
};
