/* XPM */
static char *af76fb7398a840a58b4dc69a81929281AvCs69bSkCOqNTEW[] = {
/* columns rows colors chars-per-pixel */
"60 60 225 2 ",
"   c None",
".  c #020401",
"X  c #070802",
"o  c #0A0B05",
"O  c #0C0C0B",
"+  c #07070A",
"@  c #0F100C",
"#  c #0E0E12",
"$  c #0E0C1E",
"%  c #110E1E",
"&  c #100E14",
"*  c #0F1011",
"=  c #0F1018",
"-  c #101113",
";  c #12121B",
":  c #0E0C23",
">  c #0E0D2F",
",  c #120F28",
"<  c #141224",
"1  c #15122A",
"2  c #19162B",
"3  c #181623",
"4  c #0E0D33",
"5  c #140E3B",
"6  c #140F33",
"7  c #151232",
"8  c #1B1635",
"9  c #1E1835",
"0  c #14113C",
"q  c #1B153D",
"w  c #1E183A",
"e  c #211A3F",
"r  c #201A36",
"t  c #201927",
"y  c #302938",
"u  c #110F42",
"i  c #110F4A",
"p  c #1B1543",
"a  c #12104D",
"s  c #191449",
"d  c #0A0A56",
"f  c #0C0C5A",
"g  c #110E5D",
"h  c #120F51",
"j  c #131153",
"k  c #1C1655",
"l  c #13105E",
"z  c #1E175E",
"x  c #221A43",
"c  c #251C4C",
"v  c #201745",
"b  c #251B54",
"n  c #231B5B",
"m  c #281E57",
"M  c #2B204A",
"N  c #382949",
"B  c #2E2255",
"V  c #352A57",
"C  c #3F3E41",
"Z  c #141161",
"A  c #1B1564",
"S  c #15116A",
"D  c #1B166B",
"F  c #1E1A68",
"G  c #170E73",
"H  c #1B1573",
"J  c #1F1874",
"K  c #1E157D",
"L  c #120F65",
"P  c #241B62",
"I  c #221A6C",
"U  c #2A1E69",
"Y  c #221A74",
"T  c #2A1F74",
"R  c #241B7A",
"E  c #291E7E",
"W  c #21177C",
"Q  c #2F2268",
"!  c #2D2063",
"~  c #31236D",
"^  c #372964",
"/  c #2C207C",
"(  c #332474",
")  c #3E2C75",
"_  c #35257B",
"`  c #3C2B7A",
"'  c #423055",
"]  c #493563",
"[  c #543C6F",
"{  c #412E7D",
"}  c #4B3677",
"|  c #4C366F",
" . c #554572",
".. c #7E8078",
"X. c #261C81",
"o. c #2A1E83",
"O. c #2C1E89",
"+. c #251486",
"@. c #301D94",
"#. c #2D2184",
"$. c #2E218B",
"%. c #332485",
"&. c #3C2B85",
"*. c #33248D",
"=. c #3A278C",
"-. c #3C2A8B",
";. c #372785",
":. c #352593",
">. c #3C2994",
",. c #362698",
"<. c #3D2A9A",
"1. c #392698",
"2. c #3D318E",
"3. c #3E29A1",
"4. c #412E8D",
"5. c #432F82",
"6. c #483B8D",
"7. c #412D92",
"8. c #422C9E",
"9. c #443395",
"0. c #4C339D",
"q. c #493999",
"w. c #523A9D",
"e. c #543998",
"r. c #583F8F",
"t. c #442DA3",
"y. c #462FA9",
"u. c #4D34A3",
"i. c #4931AD",
"p. c #4B36A5",
"a. c #5136A2",
"s. c #553CA3",
"d. c #5437A9",
"f. c #553AAC",
"g. c #5B3BAC",
"h. c #5C3BA6",
"j. c #563AB3",
"k. c #5A3DB2",
"l. c #5B3EB9",
"z. c #5237B0",
"x. c #4A31B2",
"c. c #623EAD",
"v. c #623EB0",
"b. c #46408A",
"n. c #4E429B",
"m. c #51499D",
"M. c #674A88",
"N. c #694A96",
"B. c #70509B",
"V. c #636195",
"C. c #5A46A8",
"Z. c #5D52A4",
"A. c #5E40B9",
"S. c #5F40B7",
"D. c #6342AD",
"F. c #6942AE",
"G. c #6A4BAE",
"H. c #6247A5",
"J. c #6458A8",
"K. c #7E5AA7",
"L. c #6543B3",
"P. c #6A44B4",
"I. c #6343BC",
"U. c #6D45BB",
"Y. c #6E4ABB",
"T. c #6B4AB4",
"R. c #7146B6",
"E. c #7549BB",
"W. c #7D4CBE",
"Q. c #7147B8",
"!. c #6A51B3",
"~. c #7552BC",
"^. c #7A55BB",
"/. c #7857B8",
"(. c #7468B4",
"). c #7067B0",
"_. c #6A47C1",
"`. c #7F4EC0",
"'. c #7954C5",
"]. c #804EBF",
"[. c #875FB1",
"{. c #8B63BA",
"}. c #867FBB",
"|. c #814FC1",
" X c #8451C3",
".X c #8955C6",
"XX c #845DC3",
"oX c #8A57C8",
"OX c #865ACA",
"+X c #8D5ACA",
"@X c #8A57C7",
"#X c #915ECC",
"$X c #8D63C9",
"%X c #9462CD",
"&X c #966ACC",
"*X c #9E70CE",
"=X c #8E62D2",
"-X c #9564D1",
";X c #9966D4",
":X c #9D6BD6",
">X c #9E6DDB",
",X c #9768D7",
"<X c #A16DDA",
"1X c #A473DC",
"2X c #A474DA",
"3X c #A473E3",
"4X c #AA76E1",
"5X c #AD7AE3",
"6X c #AD78E9",
"7X c #B27EE6",
"8X c #B27DE7",
"9X c #B37DEB",
"0X c #B57FF0",
"qX c #B2B4AD",
"wX c #9B94C5",
"eX c #988DCD",
"rX c #AD8BD9",
"tX c #AFA8D6",
"yX c #B680EB",
"uX c #B882EC",
"iX c #B781F0",
"pX c #BA83F3",
"aX c #C29AEB",
"sX c #CEB1EE",
"dX c #D9DAE8",
/* pixels */
"                                                Z l Z l Z l Z Z l Z l l                                                 ",
"                                          Z Z Z Z Z Z Z Z Z Z l Z l Z Z Z Z Z                                           ",
"                                    Z Z Z Z Z g l g g f g l Z A Z Z Z Z l l Z Z l Z                                     ",
"                                Z Z Z l d d g g A I I T I A l d d f l l A Z l Z Z Z l Z                                 ",
"                            Z Z Z f d A &.H.^.&X2X1X4X4X1X2X&X/.N.-.D l f g Z g Z l l Z Z l                             ",
"                          Z Z d l &./.:X1X2X<X;X-X#X%X-X;X<X4X9XuXyX1X'.9.Y g g l Z Z Z l Z Z                           ",
"                      Z Z f l 6.$X<X;X@X].W.E.W.W.W.W.W.W.W.W. XoX;X2XuX0X:XC.E Z Z l l Z Z Z Z Z                       ",
"                    Z l f ` .X;X@XW.W.W.|..X.X.X|. X X X X X X|.].].].@X<X8X8X:Xs.H D Z l Z l l Z l                     ",
"                  Z g Z H.%X.XW.W.|..X X].P.c.a.C.0.8.0.a.g.v.E.|..X|.|.].oX<X7X8XXX#.D A g V.I g Z l     O             ",
"                E S I ^.#X].|.|. X].P.0.>.*.O.*.dX(.@.<.8.<.8.t.u.k.E.|.|.].W.#X1XyX2X7.H F F Z Z Z Z l     O           ",
"              R J ;. X XE.|..XW.c.>.*.$.*.1.8.t.C.u.t.t.8.t.8.t.8.<.t.a.Q. X|.|. X<X9X5Xa.J H Z l Z l Z Z   O           ",
"            R Y =. X X]. X XP.>.$.*.*.<.8.8.8.8.t.t.t.8.t.8.8.8.8.t.t.8.8.d.`. X`.`.&X5X8XC.H Y Z Z l Z Z S   O         ",
"            Y %.W. XW. X|.a.*.*.*.:.8.t.8.t.y.y.i.8.8.8.t.t.y.y.t.8.t.t.t.8.t.P. X|.W.-X5X8Xw.H Y l Z Z l Z   X         ",
"          R E E. X`..XE.7.O.*.*.0.<.t.t.u.8._ m r 2 1 1 1 r c ( >.u.t.t.8.t.t.<.v. X|.W.%X7X5X-.J Y l Z Z l Z $ o       ",
"        R W F..XW. XE.>.*.*.*.8.!.t.y.;.x ; @ o O @ @ @ @ o o @ ; e _ y.t.8.t.8.<.g. X|.].;XyX;XE R D l Z Z Z l o       ",
"        H w..XW. XE.>.*.:.*.1.8.t.>.x @ o * @ - - - * * * * * * @ o O 8 =.y.8.t.t.8.g. X|.^.<XuXG.H E Z g Z l Z : X     ",
"      H ;. X|.|. X>.$.:.$.>.8.y.( ; o @ - @ - - @ O X X X + O O O O & O * ! y.8.h.@.p.P.|.|.@X5X1X=.R Y l Z Z Z u X     ",
"      Y P. X].@X0.$.*.*.>.t.y.B O @ * * - - o X + # , < < # . . X O + O * o v t.!.eX(.*.E. XW.-XuX!.H X.D Z Z Z l O     ",
"    H 7..XW. XL.$.*.*.*.<.y.b o - * * - o O 8 ~ e.^.=X:X>X&XK.[ t . o O O # o e C.tX).+.0. X|. X5X1X/ J R Z Z l l # o   ",
"    R E.|.W.rXq.$.*.*.1.i.m o * @ - * o r 4.I.,X3X1X<X<X<X3X9XpX4XB.; . O o @ o  .3.C.>.*.R. XW.;XuXC.H R D l Z Z , X   ",
"    7..XW.#XC.*.:.*.*.y.( O * * * * O ^ j.'.-X#X|.`.`.`.].|..X#X1X0X2XN . O + & X ( 3.*.$.p. XW.@XyXXXJ R J Z l S 4 +   ",
"  Y P.|.@X'.o.*.*.*.>.8.= @ * * @ @ { l.E.oX|.E.|.|.`.`.E.Q.R.E. X#X8X0X] . O O @ 3 t.>.$.>.W. XW.1X1X/ J / F l Z u X O ",
"  =.|.W.-X9.$.*.*.*.y.p o * * * @ ) A.L. XW.`. X|.U.v.l.l.l.y.u.c.E.#X1X0X' X O O o ! y.*.$.T. XW.-X7X9.H %.6.g Z i o O ",
"  0.|.+X^.o.:.*.*.>.;.O * * - o B A.S.^.`. X XW._.a.{ V B B _ t.t.u.v.+X5X2X; + O O 2 y.>.$.g.@XW.+XuXw.H R Y Z S h + O ",
"Y F.|.<X0.o.*.*.*.<.q X ; - @ 3 f.g.W.|. X`.`.S.Q ; o . . . . $ ;.y.8.R.#XpX .X O O * =.t.$.a..X]..X0XG.H E R l Z a + O ",
";.E.+X%XE *.:.*.:.;.O O @ - o { l.L. X].W.@XY.x o o 1 { N.N.^ * . ~ t.t.|.5X<X& o * @ Q i.*.0. XW.`.8X!.H R R A L h + O ",
"0.].;XG.W :.*.*.,.m X * - O r k.f.E.].]. X=Xc X @ B '.,X_.l.d.8.8 . =.t.v.;X8Xy . O . c i.:.8. X X X5X^.H R R D Z a + O ",
"h.|.1X9.R =.*.*.:.1 X ; - o ) S.g. X].W.<Xn.. @ M _.OXf.g.k.y.t.t.% 8 y.g.oX0X] . y ..e i.1.0. XW.W.4X/.H E R D L u o O ",
"F.oX>XE o.*.*.:.#.O O * @ ; a.j.P. X`..X3X8 . 3 p.OX~.f.d.( 5 =.i.~ # 8.f. X9X[ . C qXx y.>.a..X].].8XT.H R R H L 0 o # ",
"R.;X$XH *.:.*.:.U X O * O 8 k.f.Y. XE.;X{.+ X B I.:XI.k./ d . 5 i.=.& :.f. X9X] . O . v y.1.c.|.].].5XH.H R R Y Z > o # ",
"E.<X~.D *.:.*.:.b X * * o B l.d.E. XW.3XB.. @ ` I.2XL.k.E d . 6 i.&.% <.L.@X6XM X - o m y.8.Q.|.].|.<X>.H E R Y l $ o % ",
"].4XH.H o.*.*.,.s X O * o Q l.g.E.|.].9XM.. o 5.A.2XE.g.d.T u =.i.U 8 i.E.#X-X$ o ; o ~ y.t.|.|.|.|.aXwXR R R D g # O < ",
"].5Xw.H #.:.*.:.q X O * @ ( j.f.E. X`.9XM.. X ) j.-X1Xf.k.S.i.x.8., ;.P.|.>Xe.X * * * >.3.g. X|.|..XsXdX/ J R J i o O 7 ",
" X8X7.H #.:.*.@.q X * * @ _ z.f.U. XW.9X[.. X B l.L.9X$X0.u.>._ 6 Q I.|.oX'.q o ; O w y.8.E. X XE.:XE.G R R R H > o * 0 ",
"@X5X4.H o.$.n.(.V . @ * @ ( i.f.P.|.W.3X&X& X % d.j.~.9X*XN.} } G.oX|..X`._ @ - @ o ( t.d. XW.|.`.1X9.J R R R D # O = h ",
"+X5X7.Y o.$.n.eXV . O * o Q y.f.v.|.W.&XuXN . X x A.f.T.3XyX8X9X<X X`.v.-.; @ - o 9 u.t.E. X|.W.+XOXX.R R R X.a + @ , Z ",
"+X7X9.H R *.9.,.^ X O * o B y.p.k.E.|..X9X{.X O . x g.l.f.U.L.L.v.j.i.;.; @ - @ - =.t.P..X|.|.W.,Xw.J R R R R : O @ 0   ",
"+X7X9.H R #.*.:.Y o + # @ 9 y.8.f.U. XW.:XpX[ . @ X : ) a.j.t.t.t.=.m - * - - X ~ 3.g. X].|.W.+X'.o.E R R X.A + * * j   ",
"%X7Xw.H R E *.*.#.# o O @ ; >.t.p.k.W.|. X4XyX' . O o X ; r x e 2 & O - - * X U y.d.|.|.|.|.|.#X<.X./ R Y X.1 O @ < Z   ",
"  9XG.H R R *.*.:.7 o O * o Q y.8.d.P.|.].OX5XyX[ X . # O X o o O O * O X * ~ y.L. X|.|.|.|.+Xs.#.R H G #.A @ * @ i     ",
"  7X'.H R Y o.*.,.n X O O O 8 t.8.8.f.Q. XW.OX1XpX[.N X . X X X X X . O p =.I. X X|.|.|.`.oXD.O.#.G J.).D < @ @ < Z     ",
"  yX&XR R R R *.:.#.# o + & @ ( i.8.8.d.E. XW..X:X0X8X{. .N 8 1 7 x ~ a.'.=X%X X|.|.|.|..Xc.$.*.E H b.m.0 @ * @ i Z     ",
"    4X;.Y R R o.*.:.p X O # @ 3 8.,.*.:.d.E..X`.].@X:X9X0X0X5X<X>X3X3X4X;X.XW.|.|.`.|..Xh.$.*.o.R R K l @ * @ : Z       ",
"    8Xs.H E R R *.:./ O o o @ O c :.*.*.*.8.L. X|.W.|. XoX;X;X<X;X%X+X XE.`.|.].|..XW.0.$.*.o.R Y E I * @ * @ j Z       ",
"    yXXXH R R R E *.1.s X O O # o n ,.=.*.*.*.u.E..X.X].W.W.W.W.W.W.`.`.].]. X.X|.D.>.$.:.o.Y R R Y ; @ * @ 0 Z         ",
"      7X#.Y R R Y o.:.*.: X + O - O P ,.*.*.*.*.:.8.v.]..X.X|. X X X X X|..XW.c.8.$.*.:.#.R R X.Y % @ * @ , Z Z         ",
"      7X$XH R R R R #.1.T O o O O * O b :.:.*.*.*.*.*.>.0.g.P.E.R.E.E.g.!.9.*.$.*.*.*.X.Y R X.P % @ * @ = l Z           ",
"        uX  R R R R R $.1.P + + O O @ o q *.:.*.*.*.*.*.$.$.*.*.*.*.>.9.eXZ.>.*.*.*.E R R X.k # @ * * * j Z             ",
"        4X  S E R R R R #.1.n X O O O # O ; U :.:.*.*.*.*.*.*.*.*.*.>.Z.wX(.n.*.#.R R X.D 7 @ @ - @ * j Z l             ",
"          5X  R R R R R R #.,.n o o O + O * O 8 T :.:.:.*.*.*.*.*.*.*.+.Z.*.W E W X.I q * @ * - @ * j Z l               ",
"          4X    R R R R R R X.:.Y # X O + O * o @ 2 n / :.1.:.:.:.:.$.$.$.o.R Y k 2 - o * * * o : Y H l                 ",
"            4X    R R R R E H 2.tX$.6 X + O O O @ @ o - 3 p k n P P A k s 0 < ; @ @ @ ; * @ O 0 R E Y                   ",
"                    R R R R R / 6.o.:.P % X X + # O # # @ @ o @ @ @ @ O @ @ @ @ # * # O X : A X.R R                     ",
"                      R R R R R H R R O.*.b < X X o + + O O * # # @ - # * * * O o o o : k R E R R                       ",
"                          R R R E R R Y R O.o.P 7 # X X X o + o o o + X o o X X # 6 z R X.R R                           ",
"                            R R R R R R R Y R o.o.R P p > $ # O O # # # : 1 p A Y X.E R R R                             ",
"                                R R R R R R R Y R R X.X.W E Y Y I I Y Y R E X.W E Y R R                                 ",
"                                    R R R R R R R R Y R R R R W X.W E W R R R R R R                                     ",
"                                          R R R R R R R R R R R R R R R R R R                                           ",
"                                                R R R R R Y R R R R R Y                                                 "
};
