/* XPM */
static char *e3da810ee03747efdd38b597b1230f58lZIC2UpOImXgS8SA[] = {
/* columns rows colors chars-per-pixel */
"60 60 8 1 ",
"  c None",
". c #2B0D10",
"X c #341014",
"o c #612128",
"O c #FF1831",
"+ c #8E7B63",
"@ c #BDAB94",
"# c #FBE9D1",
/* pixels */
"                                                            ",
"                       oooooooooooooo                       ",
"                   ooooooooooooooooooooooo                  ",
"                   ooooooooooooooooooooooo                  ",
"                ooooooooooooooooooooooooooo                 ",
"              ooooooooooooooooooooooooooooooo               ",
"              ooooooooooooooooooooooooooooooo               ",
"             oooooooooooooooooooXXXXXXXooooooo              ",
"             oooooooooooXXXXXXXXXXXXXXXXXXoooo              ",
"             oooooooooooXXXXXXXXXXXXXXXXXXoooo              ",
"             oooooooooXXXXXXXXXXXXXXXXXXXXXXXo              ",
"              oooooXXXXoXXXoooXXoXXXXXXoXXXXXo              ",
"                oXXXXXXoooXXXoooXXXoooooXXXXX               ",
"                oXXXXXXoooXXXoooXXXoooooXXXXX               ",
"                      XXXX++++XXoooXXXXXXX                  ",
"                        +++OOO++X++OO                       ",
"                        +++OOO++X++OO                       ",
"                        @@@OOO@@+@@OO                       ",
"                        @@@@@@@@@@@@@                       ",
"                        @@@@@@@@@@@@@                       ",
"                        @@@##@##@##@@                       ",
"                        @@.##.##.##.@@@                     ",
"                        @@.##.##.##.@@@                     ",
"                        @@...#......@@@                     ",
"                       @@@@..#@@.##.@++                     ",
"                      @@@@@@@@@@@@@@@+++                    ",
"                      @@@@@@@@@@@@@@@+++                    ",
"                    @@@@@@+@@@@@@@@@@@@+++                  ",
"                    @@@@@@+@@@@@@@@@@@@++++XX               ",
"                    @@@@@@+@@@@@@@@@@@@++++XX               ",
"                   @@@@@@@+@@@@@@@@@@@@+++XXX               ",
"                   @@@@@+++@@@@@@@@@@@@+XXXXX               ",
"                   @@@@@+++@@@@@@@@@@@@+XXXXX               ",
"                 XX+@@@@++@@@@@@@@@@@@@ XXX                 ",
"                 XXooo+o++@@@@@@@@@@@@@@                    ",
"                 ooXooXoXX@@@@@@@@@@@@@@                    ",
"                 ooXooXoXX@@@@@@@@@@@@@@                    ",
"                 ooXooXoXX@@@@@@@@@@@@@@@@                  ",
"                   XXXX+oo@@@@@@@@@@@@@@@@                  ",
"                   XXXX+oo@@@@@@@@@@@@@@@@                  ",
"                    XXX@@@@@@@@@@@@@@@@@@@                  ",
"                      @@@@@@@@@@@@@@@@@+++                  ",
"                      @@@@@@@@@@@@@@@@@+++                  ",
"                      +++++@@@@@@@@@@+++                    ",
"                      ++++++++@@@@@+++++                    ",
"                      @@@@@+++++++++++++                    ",
"                      @@@@@+++++++++++++                    ",
"                      @@@@@@@+++++++++++                    ",
"                      @@@@@@@@@@++++++++++                  ",
"                      @@@@@@@@@@++++++++++                  ",
"                      @@@@@@@@++++++++++++                  ",
"                       @@@@@@+   +++++++++                  ",
"                       @@@@@@+   +++++++++                  ",
"                       @@@@++       ++++@@@                 ",
"                       o@@+++        ++@@@@                 ",
"                       o@@+++        ++@@@@                 ",
"                      XoXX+          XX@XX+                 ",
"                      oXooX          ooXooX                 ",
"                                                            ",
"                                                            "
};
