/* XPM */
static char *_12dfdefcba64abec3857489188f65f6jiH8HvxttaqyRa27[] = {
/* columns rows colors chars-per-pixel */
"60 60 8 1 ",
"  c None",
". c #2B0D10",
"X c #341014",
"o c #612128",
"O c #FF1831",
"+ c #8E7B63",
"@ c #BDAB94",
"# c #FBE9D1",
/* pixels */
"                                                            ",
"                                                            ",
"                       oooooooooooooo                       ",
"                   oooooooooooooooooooooo                   ",
"                   oooooooooooooooooooooo                   ",
"                 ooooooooooooooooooooooooo                  ",
"               oooooooooooooooooooooooooooo                 ",
"              oooooooooooooooooXXXXXXXooooooo               ",
"              oooooooooooooooooXXXXXXXooooooo               ",
"              oooooooooooXXXXXXXXXXXXXXXXoooo               ",
"              ooooooooXXXXXXXXXXXXXXXXXXXXXoo               ",
"               ooooXXXXooXXoooXooXXXXXoXXXXoo               ",
"               ooooXXXXooXXoooXooXXXXXoXXXXoo               ",
"                 oXXXXXoooXXXooXXXoooooXXXX                 ",
"                      XXXX++++XoooXXXXXXX                   ",
"                         ++OOO+XX+OOO                       ",
"                         ++OOO+XX+OOO                       ",
"                         @@OOO@++@OOO                       ",
"                         @@@@@@@@@@@@                       ",
"                         @@##@#@@#@@@                       ",
"                         @@##@#@@#@@@                       ",
"                         @.##.#..#.@@                       ",
"                         @........                          ",
"                         @...#.....@@                       ",
"                         @...#.....@@                       ",
"                         @@..#@..#.@@                       ",
"                         @@@@@@@@@@@@                       ",
"                         @@@@@@@@@@@@@                      ",
"                         @@@@@@@@@@@@@                      ",
"                         @@@@@@@@@@@@@@                     ",
"                       @@@@++@@@@@@@@@@++X                  ",
"                       @@@@++@@@@@@@@@@XXX                  ",
"                       @@@@++@@@@@@@@@@XXX                  ",
"                       @@@@@@+@@@@@@@@@XXX                  ",
"                      +@@@@+++@@@@@@@@@XX                   ",
"                      +++@@++@@@@@@@@@@@@                   ",
"                      +++@@++@@@@@@@@@@@@                   ",
"                      X++++oo+@@@@@@@@@@@                   ",
"                      Xooo+ooX@@@@@@@@@@@@                  ",
"                       XXXoXXX@@@@@@@@@@@@                  ",
"                       XXXoXXX@@@@@@@@@@@@                  ",
"                       XXXXXX+@@@@@@@@@@@@                  ",
"                         X+XX@@@@@@@@@@@@@                  ",
"                         ++++++++++@@@@@@@                  ",
"                         ++++++++++@@@@@@@                  ",
"                         ++++++++++++++@@@@                 ",
"                         +@@@@@++++++++++@@@@               ",
"                         ++@@@@@@+++++++++@@@               ",
"                         ++@@@@@@+++++++++@@@               ",
"                          +@@@@@@++++++++++@@@              ",
"                          +++@@@@+++++++++@@@@              ",
"                           ++@@++        X@XX+              ",
"                           ++@@++        X@XX+              ",
"                           +++@          oXooX              ",
"                           oo++                             ",
"                          XooX+                             ",
"                          XooX+                             ",
"                          oXXoX                             ",
"                                                            ",
"                                                            "
};
