/* XPM */
static char *_0e7096bc82048feeff6d263c56df14a2oXijxGEx4rRY5fW[] = {
/* columns rows colors chars-per-pixel */
"60 60 8 1 ",
"  c None",
". c #2B0D10",
"X c #341014",
"o c #612128",
"O c #FF1831",
"+ c #8E7B63",
"@ c #BDAB94",
"# c #FBE9D1",
/* pixels */
"                                                            ",
"                                                            ",
"                             ooooo                          ",
"                            ooooooooo                       ",
"                          oooooooooooo                      ",
"                          oooooooooooo                      ",
"                       ooooooooooooooo                      ",
"                      ooooooooooooXXXX                      ",
"                     oooooooooooXXXXXXo                     ",
"                    oooooooooXXXXXXXXXo                     ",
"                    oooooooooXXXXXXXXXo                     ",
"                  oooooooooXXXXXXXXXXXXoo                   ",
"                 oooooooooXXXXXXXXXXXXXoo                   ",
"                 ooooooooXXXoXXXooXXoXXoo                   ",
"                ooooooXXXXXXoooXXoooXXooo                   ",
"                ooooooXXXXXXXXX+++XXooXXX                   ",
"                ooooooXXXXXXXXX+++XXooXXX                   ",
"                oooooXXXXXooX+++OO++X+OOO                   ",
"                oooooXXXXXXXo@@@OO@@+@OOO                   ",
"                ooooXXXXXXXXX@@@@@@@@@@@@                   ",
"                 oXXX       @@@+#+##+#+@@@                  ",
"                 oXXX       @@@+#+##+#+@@@                  ",
"                             ++.#.##.#.+++                  ",
"                             ++........                     ",
"                             ++..... .                      ",
"                             ++...                          ",
"                             ++...                          ",
"                             ++...                          ",
"                             @@#....@.                      ",
"                            @@@#.#...#.                     ",
"                           @@++@@#...#@@@                   ",
"                         @@@@+++@@@@@@@++                   ",
"                         @@@@+++@@@@@@@++                   ",
"                      +@@@@@@+++++@@@@+                     ",
"                      +@@@@@+@@@@+++++                      ",
"                     o+@@@+++@@@@@@@@@@                     ",
"                    oo+++@++@@@@@@@@@@@                     ",
"                    oo+++@++@@@@@@@@@@@                     ",
"                     oo++oo@@@@@@@@@@@@                     ",
"                    oXXoooX@@@@@@@@@@@@                     ",
"                     XXXXX@@@@@@@@@@@@@                     ",
"                       XX+@@@@@@@@@@@@+                     ",
"                         ++@@@@@@@@@@@+                     ",
"                         ++@@@@@@@@@@@+                     ",
"                         ++@@@@@@@@@@++                     ",
"                         +++@@@@@@@@+++                     ",
"                         @+++++++++++@@                     ",
"                         @@++++++++++@@@@                   ",
"                         @@++++++++++@@@@                   ",
"                         @@@@+++++++++@@@@                  ",
"                         @@@@@@++++++++@@@                  ",
"                         +@@@++++++++++++@@                 ",
"                         ++@+++      ++@@@@                 ",
"                         ++@+++      ++@@@@                 ",
"                         ++++         X@@X+                 ",
"                         o++          oXXoX                 ",
"                       XXoX+                                ",
"                       ooXoX                                ",
"                                                            ",
"                                                            "
};
