/* XPM */
static char *_b592dec4f194f33e4907ef61c73d9d97VLRGRcVa7glI0SD[] = {
/* columns rows colors chars-per-pixel */
"60 60 8 1 ",
"  c None",
". c #341014",
"X c #612128",
"o c #FF1831",
"O c #8E7B63",
"+ c #BDAB94",
"@ c #FBE9D1",
"# c white",
/* pixels */
"                                                            ",
"                                                            ",
"                                                            ",
"                                                            ",
"                                                            ",
"                                XXXXX                       ",
"                               XXXXXXXXX                    ",
"                               XXXXXXXXX                    ",
"                            XXXXXXXXXXXXX                   ",
"                          XXXXXXXXXXXXXXX                   ",
"                        XXXXXXXXXXXXX....                   ",
"                        XXXXXXXXXXXXX....                   ",
"                       XXXXXXXXXXXX......XX                 ",
"                      XXXXXXXXXX.........XX                 ",
"                    XXXXXXXXX..............X      ###       ",
"                   XXXXXXXXX...............X    ####        ",
"                   XXXXXXXXX...............X    ####        ",
"                   XXXXXXXX....X...XX..X...X #####          ",
"                  XXXXXX.......XX...XXX..XXX#####           ",
"                  XXXXXX.........OOOO..XX...####            ",
"                  XXXXXX.........OOOO..XX...####            ",
"                  XXXXX.....XXX.OOOooOO.Oooo#############   ",
"                  XXXXX........X+++oo++O+ooo##########      ",
"                  XXXX..........+++O+++++++++#######        ",
"                  XXXX..........+++O+++++++++#######        ",
"                   X...     +++++OOO+@@O@OO+@++###          ",
"                       +++++++++OOOOO@@O@OOO@OO#            ",
"                    +++++++++++++++OOOO++++++++##           ",
"                    +++++++++++++++OOOO++++++++##           ",
"               +++++++++++++++++++++OOOOOOOO######          ",
"           O++++++++++++++++++++++++#################       ",
"         XOOOO++++++++++++++++++++++O######    #########    ",
"         XOOOO++++++++++++++++++++++O######    #########    ",
"       XXXXXOOO++++OOOOO+++++++++++OO  ####         #####   ",
"       XX..XOOO+++OOOOO++++++++++OOO    ####                ",
"      ....XXXXXOOOOOOO++++++++++OOO      ###                ",
"       ..X..XXOOOO+++++++++++++OOOO        ##               ",
"       ..X..XXOOOO+++++++++++++OOOO        ##               ",
"       XX.XX..++++++++++++++OOOOO           #               ",
"          .O++++++++++++++OOOOOO                            ",
"          OOOO++++++++OOOOOOO                               ",
"          OOOO++++++++OOOOOOO                               ",
"         ++OOOOOOOOOOOOOOOOO                                ",
"       ++++OOOOOOOOOOOOOOOOO                                ",
"       +++OOOOOOOOOOOOOOOOOO                                ",
"       +++OOOOOOOOOOOOOOOOOO                                ",
"       +++OOOOOOOOOOOOOOOOOOO                               ",
"      +++OOOOOO        OOOOOO                               ",
"     ++++OOOOOO        OOOOOO                               ",
"     ++++OOOOOO        OOOOOO                               ",
"   ++++OOOOOOO          OOO++                               ",
"   XX+OOOOOO            OO+++                               ",
"  .XX.OXX               ..+.O                               ",
"  X..X.                 XX.X.                               ",
"  X..X.                 XX.X.                               ",
"                                                            ",
"                                                            ",
"                                                            ",
"                                                            ",
"                                                            "
};
