/* XPM */
static char *ee5301e7708744f0af8afeb645cbf5edT5UbFcI6T1YlPK10[] = {
/* columns rows colors chars-per-pixel */
"60 60 22 1 ",
"  c None",
". c #050509",
"X c #11101B",
"o c #27251A",
"O c #28251A",
"+ c #181724",
"@ c #2D2B22",
"# c #222034",
"$ c #252338",
"% c #302E42",
"& c #312E42",
"* c #312F43",
"= c #353348",
"- c #363449",
"; c #F8E816",
": c #9AA2B6",
"> c #C8D0E2",
", c #D2D9E7",
"< c #DAE0EB",
"1 c #D5E2FC",
"2 c #DDE7FC",
"3 c #E3EBFC",
/* pixels */
"                   333               3333                   ",
"                   333               3333                   ",
"                   333               3333                   ",
"                   333               3333                   ",
"       <<<<    2222333               33332222    <<<        ",
"       <<<<    2222333               33332222    <<<        ",
"       <<<<    2222333               33332222    <<<        ",
"    >>><<<<,,,,2222222               22222222,,,,<<<>>>>    ",
"    >>><<<<,,,,2222222               22222222,,,,<<<>>>>    ",
"    >>><<<<,,,,2222222               22222222,,,,<<<>>>>    ",
"    >>><<<<,,,,2222222               22222222,,,,<<<>>>>    ",
"    >>>,,,,<<<<11112222222        22222221111<<<<,,,>>>>    ",
"    >>>,,,,<<<<11112222222        22222221111<<<<,,,>>>>    ",
"    >>>,,,,<<<<11112222222        22222221111<<<<,,,>>>>    ",
"    >>>,,,,<<<<11112222222        22222221111<<<<,,,>>>>    ",
"       >>>>,,,,<<<<1112222        2221111<<<<,,,,>>>        ",
"       >>>>,,,,<<<<1112222        2221111<<<<,,,,>>>        ",
"       >>>>,,,,<<<<1112222        2221111<<<<,,,,>>>        ",
"       >>>>,,,,<<<<1112222        2221111<<<<,,,,>>>        ",
"    ...::::>>>>,,,,<<<1111        111<<<<,,,,>>>>:::....    ",
"    ...::::>>>>,,,,<<<1111        111<<<<,,,,>>>>:::....    ",
"    ...::::>>>>,,,,<<<1111        111<<<<,,,,>>>>:::....    ",
"XXXXXXX....::::>>>>,,,1111--------111,,,,>>>>::::...XXXXXXXX",
"XXXXXXX....::::>>>>,,,1111--------111,,,,>>>>::::...XXXXXXXX",
"XXXXXXX....::::>>>>,,,1111--------111,,,,>>>>::::...XXXXXXXX",
"XXXXXXX....::::>>>>,,,1111--------111,,,,>>>>::::...XXXXXXXX",
"    +++XXXX....::::>>>----$$$$$$$$--->>>>::::....XXX++++    ",
"    +++XXXX....::::>>>----$$$$$$$$--->>>>::::....XXX++++    ",
"    +++XXXX....::::>>>----$$$$$$$$--->>>>::::....XXX++++    ",
"    +++XXXX....::::>>>----$$$$$$$$--->>>>::::....XXX++++    ",
"    $$$++++XXXX....:::$$$$++++++++$$$::::....XXXX+++$$$$    ",
"    $$$++++XXXX....:::$$$$++++++++$$$::::....XXXX+++$$$$    ",
"    $$$++++XXXX....:::$$$$++++++++$$$::::....XXXX+++$$$$    ",
"    $$$++++XXXX....:::$$$$++++++++$$$::::....XXXX+++$$$$    ",
"       $$$$++++XXXX...@@@@XXXXXXXX@@@....XXXX++++$$$        ",
"       $$$$++++XXXX...@@@@XXXXXXXX@@@....XXXX++++$$$        ",
"       $$$$++++XXXX...@@@@XXXXXXXX@@@....XXXX++++$$$        ",
"                   ooo;;;;OOOOOOOO;;;oooo                   ",
"                   ooo;;;;OOOOOOOO;;;oooo                   ",
"                   ooo;;;;OOOOOOOO;;;oooo                   ",
"                   OOO;;;;OOOOOOOO;;;oooo                   ",
"               ====%%%oOoo########ooo***%====               ",
"               ===-%%&OOoo########ooo****====               ",
"               ====%&&OOoo########ooo****-===               ",
"               ====%%%oooo########ooO***%====               ",
"               %%%%   ....        ...    %%%%               ",
"               %%%%   ....        ...    %%%%               ",
"               %%%%   ....        ...    %%%%               ",
"               %%%%   ....        ...    %%%%               ",
"                   XXX               XXXX                   ",
"                   XXX               XXXX                   ",
"                   XXX               XXXX                   ",
"                   ###               ####                   ",
"                   ###               ####                   ",
"                   ###               ####                   ",
"                   ###               ####                   ",
"                      ----        ---                       ",
"                      ----        ---                       ",
"                      ----        ---                       ",
"                      ----        ---                       "
};
