/* XPM */
static char *b1f22ad52c954e1aa93e2a7f984a4acaphBJfxa9Tf0esdLA[] = {
/* columns rows colors chars-per-pixel */
"60 60 20 1 ",
"  c None",
". c #050509",
"X c #11101B",
"o c #27251A",
"O c #28251A",
"+ c #181724",
"@ c #2D2B22",
"# c #222034",
"$ c #252338",
"% c #2F2E42",
"& c #353348",
"* c #363449",
"= c #F8E816",
"- c #9AA2B6",
"; c #C8D0E2",
": c #D2D9E7",
"> c #DAE0EB",
", c #D5E2FC",
"< c #DDE7FC",
"1 c #E3EBFC",
/* pixels */
"                      1111        111                       ",
"                      1111        111                       ",
"                      1111        111                       ",
"                      1111        111                       ",
"                      1111        111                       ",
"                      1111        111                       ",
"                      1111        111                       ",
";;;;:::>>>>        <<<<<<<        <<<,,,,        >>>::::;;;;",
";;;;:::>>>>        <<<<<<<        <<<,,,,        >>>::::;;;;",
";;;;:::>>>>        <<<<<<<        <<<,,,,        >>>::::;;;;",
";;;;:::>>>>        <<<<<<<        <<<,,,,        >>>::::;;;;",
";;;;:::::::>>>>    ,,,<<<<        <<<,,,,    >>>>:::::::;;;;",
";;;;:::::::>>>>    ,,,<<<<        <<<,,,,    >>>>:::::::;;;;",
";;;;:::::::>>>>    ,,,<<<<        <<<,,,,    >>>>:::::::;;;;",
";;;;:::::::>>>>    ,,,<<<<        <<<,,,,    >>>>:::::::;;;;",
"    ;;;::::::::>>>>,,,<<<<        ,,,,,,,>>>>:::::::;;;;    ",
"    ;;;::::::::>>>>,,,<<<<        ,,,,,,,>>>>:::::::;;;;    ",
"    ;;;::::::::>>>>,,,<<<<        ,,,,,,,>>>>:::::::;;;;    ",
"    ;;;::::::::>>>>,,,<<<<        ,,,,,,,>>>>:::::::;;;;    ",
"    ---;;;;::::::::,,,,,,,        ,,,>>>>::::::::;;;----    ",
"    ---;;;;::::::::,,,,,,,        ,,,>>>>::::::::;;;----    ",
"    ---;;;;::::::::,,,,,,,        ,,,>>>>::::::::;;;----    ",
"XXXX...----;;;;;;;;:::,,,,********,,,::::;;;;;;;;---....XXXX",
"XXXX...----;;;;;;;;:::,,,,********,,,::::;;;;;;;;---....XXXX",
"XXXX...----;;;;;;;;:::,,,,********,,,::::;;;;;;;;---....XXXX",
"XXXX...----;;;;;;;;:::,,,,********,,,::::;;;;;;;;---....XXXX",
"++++XXX....--------;;;****$$$$$$$$***;;;;--------...XXXX++++",
"++++XXX....--------;;;****$$$$$$$$***;;;;--------...XXXX++++",
"++++XXX....--------;;;****$$$$$$$$***;;;;--------...XXXX++++",
"++++XXX....--------;;;****$$$$$$$$***;;;;--------...XXXX++++",
"$$$$+++XXXX........---$$$$++++++++$$$----........XXX++++$$$$",
"$$$$+++XXXX........---$$$$++++++++$$$----........XXX++++$$$$",
"$$$$+++XXXX........---$$$$++++++++$$$----........XXX++++$$$$",
"$$$$+++XXXX........---$$$$++++++++$$$----........XXX++++$$$$",
"    $$$++++XXXX++++...@@@@XXXXXXXX@@@....++++XXXX+++$$$$    ",
"    $$$++++XXXX++++...@@@@XXXXXXXX@@@....++++XXXX+++$$$$    ",
"    $$$++++XXXX++++...@@@@XXXXXXXX@@@....++++XXXX+++$$$$    ",
"       $$$$++++    ooo====OOOOOOOO===oooo    ++++$$$        ",
"       $$$$++++    ooo====OOOOOOOO===oooo    ++++$$$        ",
"       $$$$++++    ooo====OOOOOOOO===oooo    ++++$$$        ",
"       $$$$++++    ooo====OOOOOOOO===oooo    ++++$$$        ",
"                   &&&oooo########ooo&&&&                   ",
"                   &&&oooo########ooo&&&&                   ",
"                   &&&oooo########ooo&&&&                   ",
"                   &&&oooo########ooo&&&&                   ",
"                   %%%....        ...%%%%                   ",
"                   %%%....        ...%%%%                   ",
"                   %%%....        ...%%%%                   ",
"                   %%%....        ...%%%%                   ",
"                   XXX               XXXX                   ",
"                   XXX               XXXX                   ",
"                   XXX               XXXX                   ",
"                   ###               ####                   ",
"                   ###               ####                   ",
"                   ###               ####                   ",
"                   ###               ####                   ",
"                      ****        ***                       ",
"                      ****        ***                       ",
"                      ****        ***                       ",
"                      ****        ***                       "
};
