/* XPM */
static char *_5931a4c7a644ae0fee611b8d50e4bb9b9giRZLzeCNZPuSF[] = {
/* columns rows colors chars-per-pixel */
"60 60 21 1 ",
"  c None",
". c #050509",
"X c #11101B",
"o c #27251A",
"O c #28251A",
"+ c #181724",
"@ c #2D2B22",
"# c #222034",
"$ c #252338",
"% c #302D42",
"& c #302F42",
"* c #353348",
"= c #363449",
"- c #F8E816",
"; c #9AA2B6",
": c #C8D0E2",
"> c #D2D9E7",
", c #DAE0EB",
"< c #D5E2FC",
"1 c #DDE7FC",
"2 c #E3EBFC",
/* pixels */
"                                                            ",
"                                                            ",
"                                                            ",
"                                                            ",
"                                                            ",
"                                                            ",
"                           222222                           ",
"                           222222                           ",
"                           222222                           ",
"                           222222                           ",
"                           222222                           ",
"                           222222                           ",
"                        111222222111                        ",
"                        111222222111                        ",
"                        111222222111                        ",
":::>>>,,,               111111111111               ,,,>>>:::",
":::>>>,,,               111111111111               ,,,>>>:::",
":::>>>,,,               111111111111               ,,,>>>:::",
"   :::>>>>>>,,,      <<<111111111111<<<      ,,,>>>>>>:::   ",
"   :::>>>>>>,,,      <<<111111111111<<<      ,,,>>>>>>:::   ",
"   :::>>>>>>,,,      <<<111111111111<<<      ,,,>>>>>>:::   ",
"   :::::::::>>>,,,,,,<<<<<<      <<<<<<,,,,,,>>>:::::::::   ",
"   :::::::::>>>,,,,,,<<<<<<      <<<<<<,,,,,,>>>:::::::::   ",
"   :::::::::>>>,,,,,,<<<<<<      <<<<<<,,,,,,>>>:::::::::   ",
"      ;;;;;;::::::>>>,,,<<<======<<<,,,>>>::::::;;;;;;      ",
"      ;;;;;;::::::>>>,,,<<<======<<<,,,>>>::::::;;;;;;      ",
"      ;;;;;;::::::>>>,,,<<<======<<<,,,>>>::::::;;;;;;      ",
"      ......;;;;;;:::>>>===$$$$$$===>>>:::;;;;;;......      ",
"      ......;;;;;;:::>>>===$$$$$$===>>>:::;;;;;;......      ",
"      ......;;;;;;:::>>>===$$$$$$===>>>:::;;;;;;......      ",
"      $$$+++......;;;:::$$$++++++$$$:::;;;......+++$$$      ",
"      $$$+++......;;;:::$$$++++++$$$:::;;;......+++$$$      ",
"      $$$+++......;;;:::$$$++++++$$$:::;;;......+++$$$      ",
"         $$$+++XXX......@@@XXXXXX@@@......XXX+++$$$         ",
"         $$$+++XXX......@@@XXXXXX@@@......XXX+++$$$         ",
"         $$$+++XXX......@@@XXXXXX@@@......XXX+++$$$         ",
"            $$$+++   ooo---OOOOOO---ooo   +++$$$            ",
"            $$$+++   ooo---OOOOOO---ooo   +++$$$            ",
"            $$$+++   ooo---OOOOOO---ooo   +++$$$            ",
"                  &&%***ooo######ooo=**&&&                  ",
"                  %&&=**ooo######ooo**=&&&                  ",
"                  &&&**=ooo######ooo***&&&                  ",
"                  %%%   ...      ...   %%%                  ",
"                  %%%   ...      ...   %%%                  ",
"                  %%%   ...      ...   %%%                  ",
"                     XXX            XXX                     ",
"                     XXX            XXX                     ",
"                     XXX            XXX                     ",
"                     ###            ###                     ",
"                     ###            ###                     ",
"                     ###            ###                     ",
"                        ===      ===                        ",
"                        ===      ===                        ",
"                        ===      ===                        ",
"                                                            ",
"                                                            ",
"                                                            ",
"                                                            ",
"                                                            ",
"                                                            "
};
