/* XPM */
static char *_9b54c1b60564cc98dea7ae3a8b295f0d2O0X3I35NSQF4HG[] = {
/* columns rows colors chars-per-pixel */
"60 60 167 2 ",
"   c None",
".  c #292A2C",
"X  c #24272B",
"o  c #2A2D33",
"O  c #21273F",
"+  c #242B3E",
"@  c #292E3C",
"#  c #2C313B",
"$  c #2F3237",
"%  c #333536",
"&  c #3D3D36",
"*  c #33363A",
"=  c #353939",
"-  c #3A3B39",
";  c #534F2F",
":  c #5B4D2E",
">  c #57532E",
",  c #5D542D",
"<  c #5C5A2E",
"1  c #454234",
"2  c #4B4432",
"3  c #4D4A32",
"4  c #534730",
"5  c #534C31",
"6  c #474326",
"7  c #64532C",
"8  c #6A562A",
"9  c #645D2C",
"0  c #6D5829",
"q  c #755E27",
"w  c #705A28",
"e  c #62622C",
"r  c #69612A",
"t  c #7E6324",
"y  c #776A26",
"u  c #7A6E25",
"i  c #7F7220",
"p  c #141B42",
"a  c #192041",
"s  c #2E3548",
"d  c #333541",
"f  c #3A3F4A",
"g  c #423F42",
"h  c #444140",
"j  c #43464B",
"k  c #635647",
"l  c #675949",
"z  c #6C5C4B",
"x  c #715F4E",
"c  c #74624F",
"v  c #736050",
"b  c #5C5F63",
"n  c #62646B",
"m  c #D30F1F",
"M  c #D3121F",
"N  c #DE151D",
"B  c #D41F1C",
"V  c #DF1D1C",
"C  c #FE0D1B",
"Z  c #FE121B",
"A  c #FE1C19",
"S  c #D5211C",
"D  c #DF3817",
"F  c #FF2D17",
"G  c #E53917",
"H  c #FD3216",
"J  c #CF0C20",
"K  c #946F1E",
"L  c #8F7D1F",
"P  c #95711E",
"I  c #9C741C",
"U  c #917F1F",
"Y  c #A67A19",
"T  c #816423",
"R  c #876921",
"E  c #8B6A20",
"W  c #8C7B20",
"Q  c #837623",
"!  c #E84D14",
"~  c #E24D15",
"^  c #FE4813",
"/  c #E65811",
"(  c #FE5A10",
")  c #EA610F",
"_  c #EA7D0D",
"`  c #F0780A",
"'  c #94831E",
"]  c #98851D",
"[  c #9E891B",
"{  c #9D9C1B",
"}  c #96941D",
"|  c #A28C1A",
" . c #B38315",
".. c #AB9117",
"X. c #A39219",
"o. c #B19716",
"O. c #B59C14",
"+. c #AEAA16",
"@. c #A5A219",
"#. c #A8A618",
"$. c #BDA012",
"%. c #CB8E0E",
"&. c #CD940D",
"*. c #D1950D",
"=. c #DD9C09",
"-. c #D4990C",
";. c #C58F10",
":. c #C59510",
">. c #F28C09",
",. c #FE890A",
"<. c #E09D08",
"1. c #FE9408",
"2. c #CBAD0E",
"3. c #C7A80F",
"4. c #CCB30E",
"5. c #D3B40C",
"6. c #DEB009",
"7. c #D4B80C",
"8. c #D9BC0A",
"9. c #C3A711",
"0. c #C3BE11",
"q. c #E7A306",
"w. c #E8A206",
"e. c #EEA904",
"r. c #F1A703",
"t. c #FDA405",
"y. c #F4AB03",
"u. c #FDAE00",
"i. c #E0BC09",
"p. c #E5B807",
"a. c #FFB200",
"s. c #FFB900",
"d. c #DBD30A",
"f. c #DFDE09",
"g. c #EAC405",
"h. c #EFCA05",
"j. c #E5C008",
"k. c #FEC400",
"l. c #F3CB03",
"z. c #FFCE00",
"x. c #FDCD00",
"c. c #FDCC00",
"v. c #F5D002",
"b. c #FAD100",
"n. c #FDD200",
"m. c #FFD300",
"M. c #FCD100",
"N. c #FED400",
"B. c #FED600",
"V. c #FED300",
"C. c #FFDA00",
"Z. c #FED800",
"A. c #FFDD00",
"S. c #FEDF00",
"D. c #FFDC00",
"F. c #EBE505",
"G. c #FFE000",
"H. c #FFE200",
"J. c #FEEA00",
"K. c #F3EB03",
"L. c #FDF500",
"P. c #FCF400",
"I. c #FFFC00",
"U. c #FEFE00",
"Y. c #FFFC00",
"T. c #959799",
"R. c #FFFFFD",
/* pixels */
"                                                                                                                        ",
"                                                                                                                        ",
"                                                            # O O O O + + O + O + * *                                   ",
"                                                          @ ; [ ] ] ] ] ] ] ] ] W * *                                   ",
"                                                          # 5.J.A.H.H.A.H.A.A.J.y @                                     ",
"                                                        + u A.b.b.N.b.b.b.b.Z.Q O                                       ",
"* * * *                                               * - i.m.x.x.x.x.x.x.Z.X.+                                 = * * * ",
"* * * * * *                                           + P s.u.a.u.a.a.a.a.;.# =                             * * * * * * ",
"* = * * * * * *                                     # 1 y.a.a.u.u.a.u.a.<.= #                           * * * * * * * * ",
"* * * * * * * * =                                   @  .s.a.u.a.u.u.a.y.2 #                           * * * * * * * * * ",
"* * * * * * * % # *                               + , a.u.u.u.a.a.a.a.8 +                           * # * * * * = * * * ",
"* * * * * * * # 9 1 @                             # &.a.u.u.a.u.a.a.T + *                         # 1 9 # * * * * * * * ",
"* = * * * * = O ' 7.@ *                         + t s.a.a.a.u.u.a.y.; & 1 & 1 * *               * @ 7.' + * * * * * * * ",
"* * * * * * % + L J.] +                       * * &.q.<.=.y.a.a.a.a.x.g.l.m.u #                 + ] J.L + = * * * * * * ",
"  * * * * * - + o.A.Z.< @                     * = = * = @ 0 a.u.a.b.N.A.Z.y @                 + 9 Z.A.o.+ - * * * * *   ",
"  * * * * * s = h.N.Z.7.*                               + I a.u.x.B.Z.h., +                   # 5.Z.N.g.& + * * * * *   ",
"  * * # * - 4 3.Z.m.b.A.u +                           # 2 s.s.s.k.c.p.4 +                   + u A.m.m.Z.3.; - * # * *   ",
"  # 1 -.=.w.u.k.N.N.m.Z.8.*                           @ 8  .Y  .%.&.1 @                     * 8.Z.m.N.N.s.u.w.=.*.1 #   ",
"    # &.s.a.u.u.c.N.N.m.Z.r +                   O O @ * = = * # # a a @                   + r A.m.N.N.c.u.a.a.s.&.#     ",
"    + 0 a.u.a.u.a.m.N.m.A.O.+             + + - e } 0.d.F.K.K.F.d.0.{ e - + @             @ O.A.b.N.N.a.u.u.y.s.0 +     ",
"      # -.a.u.a.u.k.N.m.N.h.&         + @ < #.F.U.U.U.U.U.U.U.U.U.U.U.U.F.#.< @ +         1 h.N.m.N.k.u.u.u.a.-.*       ",
"      + 8 s.u.a.a.a.x.N.m.A.r +   # + < 0.Y.U.U.L.P.P.P.L.L.L.L.L.P.P.L.U.U.U.0.< + #   + 9 A.m.N.x.a.u.a.u.s.8 +       ",
"        @  .s.u.u.u.s.N.b.A.] @ @ & +.U.U.L.L.L.Y.L.Y.Y.Y.Y.Y.L.Y.Y.Y.Y.L.L.L.U.U.+.- @ + ] A.b.N.s.u.u.a.s. .#         ",
"        # & q.a.u.u.u.c.N.A.9.a e F.U.L.L.Y.L.P.J.J.H.A.A.A.A.A.A.A.J.J.P.L.Y.L.L.U.F.e a 9.A.N.k.u.a.u.a.q.& #         ",
"          # , a.a.a.a.a.N.Z.j., f.U.L.P.J.A.Z.m.m.m.m.m.x.m.m.m.M.M.M.M.B.Z.G.J.L.P.U.f.< g.N.m.a.a.u.a.y., +           ",
"            + 0 a.a.u.u.k.N.m.J.L.J.A.N.m.m.m.N.m.m.m.N.N.N.m.m.M.B.B.M.B.M.M.M.B.A.J.L.J.m.N.k.u.u.s.a.w +             ",
"              + 0 y.s.a.u.x.N.N.D.b.b.b.m.m.N.N.m.N.N.N.m.N.N.N.M.B.B.M.B.B.B.M.b.x.m.Z.m.m.x.u.u.a.y.0 +               ",
"                + 4 -.s.u.s.N.m.B.A.A.A.Z.m.m.N.m.N.m.N.N.N.N.m.B.M.B.B.M.M.M.Z.D.G.A.m.b.N.s.a.s.=.5 @                 ",
"                  # # E y.a.k.A.h...' [ i.H.m.m.N.N.m.N.N.N.N.N.B.M.B.M.m.N.Z.8.[ ' ..h.H.k.u.y.R * #                   ",
"                  * - = :.a.s.9.& O + + * | Z.N.m.m.N.N.N.m.N.m.M.B.M.B.m.Z.| o + + + & 3.a.a.:.= = *                   ",
"                  + X.Z.x.B.6.% f g = = * a o.A.m.m.m.N.N.N.N.N.B.M.M.M.A.o.+ j = = = # * 6.N.b.Z.X.+                   ",
"                @ 3 B.N.b.G.i s R.T.X = = # ; m.N.m.N.m.m.x.m.m.B.M.B.B.Z.6 n R.n o = - + Q H.b.N.Z.5 #                 ",
"                + O.A.b.m.Z.> # T.b . * * * - j.Z.m.m.m.Z.H.A.Z.N.m.m.N.j.% j T.j o * * @ < N.m.b.A.o.+                 ",
"              @ 3 b.N.m.m.N.< @ . * 1 f * * - j.Z.m.H.J.L.L.L.L.P.A.m.Z.j.= % . - h - - # , Z.m.m.N.B.3 @               ",
"              + W H.b.m.m.H.W a z v z x x * , Z.m.J.U.U.U.U.U.U.Y.U.J.m.Z., d c v z v l s W A.b.N.b.H.W +               ",
"              # 2.A.m.m.m.Z.g.1 d k z l g + 9.Z.b.G.J.d.{ @.#.X.d.P.D.b.A.9.+ h l z k d & g.N.m.m.m.A.2.@               ",
"              1 l.B.M.B.m.x.A.8.5 + @ + & O.A.m.N.B.Z...p O O p ..Z.B.B.b.A.O.& + @ + 5 8.Z.x.N.N.m.N.v.1               ",
"            + , x.B.B.M.m.A.x.k.v.4...$.h.A.m.N.x.4.b.N.7.3 3 5.N.x.4.x.N.b.A.h.$...4.b.k.x.H.b.N.m.B.x., +             ",
"            + y s.c.B.M.D.,.F A H t.J.A.N.m.b.A.5.+ 5.J.J.9 9 J.J.7.+ 5.A.m.b.N.A.J.t.H A F ,.Z.m.N.x.a.w +             ",
"            a T a.u.c.G.1.C Z A Z C t.Z.m.N.m.N.l.& 3 O.W + + W o.3 & x.N.N.m.m.Z.t.C Z A Z C 1.A.x.u.s.t +             ",
"            O y s.u.a.N.^ Z A A A C ( A.m.N.N.m.Z.4.3 # * ' ' # # 3 4.Z.m.m.m.m.H.( C A A A Z ^ N.a.u.s.y +             ",
"            + 7 a.u.a.a.G N V V V N ! Z.m.m.m.N.m.A.N.h.x.A.A.x.l.N.Z.m.m.m.m.m.Z.! N V V V N G a.u.a.a.7 +             ",
"            # 1 y.a.a.s./ J B B S J _ H.m.m.N.m.N.m.m.N.B.v.m.N.N.N.m.N.m.N.m.m.H._ J B B S m / s.u.a.y.1 @             ",
"              # -.a.u.a.t.D M M m ~ m.N.m.m.N.m.m.m.N.b.N.N.m.m.m.N.N.m.N.m.N.m.N.m.~ m M M D t.a.u.a.&.@               ",
"              + R s.u.u.a.u.` ) >.N.Z.m.N.m.m.N.N.N.N.N.N.N.N.N.N.N.N.N.N.m.m.N.N.Z.N.>.) ` u.a.u.u.s.R +               ",
"              # - e.a.u.a.a.s.s.s.s.x.N.N.N.m.N.m.m.m.m.m.m.m.m.m.m.m.m.N.N.N.N.N.x.s.s.s.s.a.u.u.a.e.& #               ",
"                + E s.u.a.u.u.u.u.u.u.s.c.x.N.N.N.N.N.N.N.m.m.N.N.N.N.N.N.N.m.k.s.u.u.u.u.u.u.a.u.s.E +                 ",
"                  # -.a.u.u.u.u.a.u.a.u.u.a.s.k.c.x.m.m.N.N.N.N.m.m.x.c.k.s.a.u.u.a.u.a.u.u.u.u.s.-.#                   ",
"                  # 1 e.a.u.u.u.a.u.u.a.u.u.u.u.u.a.a.a.s.s.a.s.a.a.a.u.u.u.u.u.a.u.u.u.u.a.u.a.e.1 #                   ",
"                    # : y.a.u.u.a.u.a.u.a.u.u.a.a.u.u.u.u.u.u.u.a.a.u.u.u.a.u.a.a.u.u.a.u.u.a.y., @                     ",
"                      + , e.s.u.u.u.u.a.u.a.a.u.a.u.u.a.a.a.u.a.a.u.a.a.a.u.a.u.a.u.a.u.u.a.e.: +                       ",
"                        + 1 *.s.a.u.u.a.u.a.u.a.u.a.a.u.u.a.a.u.u.a.u.a.u.a.a.u.u.u.u.a.s.*.1 #                         ",
"                          # # P y.s.a.u.u.a.a.u.a.u.a.a.u.a.a.u.a.u.u.a.u.a.u.u.y.a.s.u.P # #                           ",
"                              + 2  .y.s.a.u.u.u.u.u.u.u.u.u.a.a.u.a.u.u.u.u.a.a.s.a. .1 @                               ",
"                                # @ 2 I q.a.s.a.a.u.u.u.u.u.u.u.u.u.a.a.s.s.a.w.P 2 @ #                                 ",
"                                    # + = 7 I &.e.a.s.s.s.s.s.k.s.a.a.r.&.I 7 * s @                                     ",
"                                          + + # & 5 0 T E P P E T 8 5 & # + +                                           ",
"                                                  + + + + + a + + + +                                                   ",
"                                                                                                                        ",
"                                                                                                                        "
};
