/* XPM */
static char *_3ce0c16126242b98947f9feb1f232812GmW5mFqg1RaKk3B[] = {
/* columns rows colors chars-per-pixel */
"60 60 220 2 ",
"   c None",
".  c #001A33",
"X  c #001D38",
"o  c #002131",
"O  c #002433",
"+  c #002835",
"@  c #00213C",
"#  c #00253F",
"$  c #00293A",
"%  c #022D3A",
"&  c #042F3F",
"*  c #063039",
"=  c #00313F",
"-  c #05313F",
";  c #07313E",
":  c #07313F",
">  c #0B313A",
",  c #08323E",
"<  c #09323E",
"1  c #08323F",
"2  c #0A323E",
"3  c #0B333E",
"4  c #0B353C",
"5  c #0A343E",
"6  c #0C343E",
"7  c #0C353E",
"8  c #0E353E",
"9  c #0E353F",
"0  c #10323E",
"q  c #12353E",
"w  c #1F343D",
"e  c #133A3D",
"r  c #10383E",
"t  c #28373D",
"y  c #30373C",
"u  c #3D3A3E",
"i  c #51333B",
"p  c #5E373D",
"a  c #773539",
"s  c #1F423D",
"d  c #26403E",
"f  c #23473D",
"g  c #2E4A3C",
"h  c #2E4F3E",
"j  c #37503C",
"k  c #39593E",
"l  c #3C5A3E",
"z  c #3E5C3E",
"x  c #46573B",
"c  c #485F3C",
"v  c #49643D",
"b  c #5A6038",
"n  c #5D6339",
"m  c #5E663A",
"M  c #53693D",
"N  c #526C3E",
"B  c #576F3F",
"V  c #5C733E",
"C  c #5F753F",
"Z  c #686C3A",
"A  c #64793E",
"S  c #6A7E3E",
"D  c #747138",
"F  c #002740",
"G  c #002A40",
"H  c #002C40",
"J  c #022E40",
"K  c #032F40",
"L  c #042F40",
"P  c #043140",
"I  c #073140",
"U  c #073240",
"Y  c #0A3441",
"T  c #0F3740",
"R  c #153A47",
"E  c #1E3B41",
"W  c #2E3F42",
"Q  c #1B414D",
"!  c #1B4351",
"~  c #244742",
"^  c #364042",
"/  c #394549",
"(  c #3D4648",
")  c #204652",
"_  c #204654",
"`  c #284B57",
"'  c #30525E",
"]  c #3C5B65",
"[  c #424141",
"{  c #474646",
"}  c #424849",
"|  c #4B4A4A",
" . c #4A4B4B",
".. c #4E4C4A",
"X. c #4D4C4C",
"o. c #4F5045",
"O. c #4B6740",
"+. c #436067",
"@. c #46656E",
"#. c #536B70",
"$. c #547079",
"%. c #883639",
"&. c #A3393B",
"*. c #BC3635",
"=. c #CB3736",
"-. c #D53B3A",
";. c #E13C3C",
":. c #ED3E3B",
">. c #F53F3C",
",. c #FE3F3B",
"<. c #867D38",
"1. c #EF403D",
"2. c #70853E",
"3. c #7B8A3E",
"4. c #7E8F40",
"5. c #808F3D",
"6. c #938638",
"7. c #85933C",
"8. c #87953D",
"9. c #8F9A3C",
"0. c #96973A",
"q. c #959F3C",
"w. c #A08E36",
"e. c #AA9336",
"r. c #95A03D",
"t. c #9DA23B",
"y. c #A1A93D",
"u. c #A9AF3D",
"i. c #B1AC3B",
"p. c #BDAF38",
"a. c #AEB33C",
"s. c #B5B83C",
"d. c #B7B93D",
"f. c #BCBD3D",
"g. c #CAA936",
"h. c #D3AD34",
"j. c #D8B135",
"k. c #E5B733",
"l. c #EBBF34",
"z. c #C7C53C",
"x. c #CECB3C",
"c. c #DFC737",
"v. c #D0C83B",
"b. c #D4D03C",
"n. c #DCD43B",
"m. c #EAC735",
"M. c #EDCF36",
"N. c #FAC832",
"B. c #FDCD32",
"V. c #E0D93C",
"C. c #E3DA3C",
"Z. c #E8DF3B",
"A. c #FBD334",
"S. c #FFDD35",
"D. c #ECE23C",
"F. c #FFE236",
"G. c #F9EC33",
"H. c #F2E73C",
"J. c #F7EA3B",
"K. c #F3E93C",
"L. c #F5E93C",
"P. c #F4EB3C",
"I. c #F7EC3C",
"U. c #F7EF3C",
"Y. c #F8E939",
"T. c #F9EB3A",
"R. c #FBEF38",
"E. c #F9ED3A",
"W. c #FEEF39",
"Q. c #FCED3A",
"!. c #F9EB3C",
"~. c #F9ED3C",
"^. c #F9EC3F",
"/. c #FFF532",
"(. c #FFF13A",
"). c #FFF43A",
"_. c #FFF53A",
"`. c #FFF73A",
"'. c #FCF03C",
"]. c #FFF93A",
"[. c #FFFC3A",
"{. c #BCBD40",
"}. c #FFF140",
"|. c #F5EB5A",
" X c #F8ED63",
".X c #F5ED79",
"XX c #617780",
"oX c #627B83",
"OX c #6A838A",
"+X c #75878A",
"@X c #7E9399",
"#X c #859193",
"$X c #83979B",
"%X c #94A6AB",
"&X c #9BABAE",
"*X c #A6ADAF",
"=X c #A3B1B5",
"-X c #ABB7B9",
";X c #B2BBBC",
":X c #F7F18E",
">X c #F7F1B7",
",X c #C1C6C8",
"<X c #C8CECF",
"1X c #D2D2D2",
"2X c #D3D9DA",
"3X c #F3F1C7",
"4X c #DCDFE1",
"5X c #E1E4E4",
"6X c #E9EAEA",
"7X c gray93",
"8X c #EDEFEF",
"9X c #F3F1E3",
"0X c #EFF0F0",
"qX c #F1F1F1",
"wX c #F3F3F3",
"eX c #F1F3F7",
"rX c #F5F5F7",
"tX c #FAF8F8",
"yX c #FEFCFB",
"uX c white",
/* pixels */
"                                                                                                                        ",
"                                                          P 3 Y Y 7                                                     ",
"                                                          3 J Y P 3 P 7                                                 ",
"                                                                ; e e J ;                                               ",
"                                                                3 J 7.N F 3                                             ",
"                                                                  # 8.~.h L                                             ",
"                                                                7 G r.].u.J P                                           ",
"                                                                G e n.(.D.~ J                                           ",
"                                                        7 Y ; G G y._.L.L.( P                                           ",
"                                                    J F J 7 e z s.(.L.~.R.N G                                           ",
"                              3 J 7             7 G T 2.s.b.Z.^._.L.J.^.U.k =                                           ",
"                              P ; Y 3           J h x._._.}.Q.T.L.~.J.~.n.s =         ; ; 3                             ",
"                                3 Y P ;       J s C._.H.L.L.T.^.T.J.J.[.r.G Y     7 3 P Y &                             ",
"                                J ~ q.P 7   7 J a._.K.~.^.T.~.T.I.~.K.u.s J       P e 7 P                               ",
"                              3 X A H.7 3   J ~ K.}.T.L.L.T.~.^.L._.q.# 3       J e y.T ;                               ",
"                        J F F J O.Z.~.h J   G V W.H.T.^.~.^.T.T.K.].7.F         G z W.v # 3                             ",
"                      P 7 A 9.f.~.~.'.O.G   G A _.L.T.^.E.T.^.T.Y.(.a.J P       F A ].C.v P G F L                       ",
"                    P e d.].].(.^.H._.r.G 3 G V }.L.J.E.^.T.T.^.^.T.K.l # 7 P J ; z.}.'.T.z.y.S 3 P                     ",
"                  7 # 8.[.J.H.J.^.T.W.D.f J 3 f D.(.J.^.T.^.T.^.T.J.(.C.B 7 T h f.(.L.L.J.(.]._.s.Y J                   ",
"                  P r C.'.J.^.T.J.^.L._.s.J P J 3.(.E.~.T.Y.^.T.T.^.J.E.(.C.v.L.(.J.E.^.^.L.K.H.].2.G                   ",
"                  L h H.^.T.T.^.E.^.^.J._.u.7 # G f x.(.Y.T.^.T.T.T.J.J.~.Q.'.E.J.3X:XG.}.L.^.Y.(.z.& ;                 ",
"                  L h L.T.^.L.~.^.T.E.L.J._.n.3.c l b.(.Y.^.T.T.J.T.W.^.~.T.^.T.|.0X3X X9X.XG.^.}.D.r J                 ",
"                  J e C.(.K.^.T.J.J.K.J.J.K.(.].D.v.).(.J.T.T.L._.^.x.J.T.^.I.J.L.>X.X.XeX:XG.L.'.Z.r 5                 ",
"                  5 G 7.].J.H.^.(.(.]._.(.'.H._.y.G v v.(.Y.^.W.x.z F u.(.H.(.(.]././.|.>X|.L.L._.{.J 3                 ",
"                    J 7 s._.].'.C.{.u.t.{.D._._.v.x F f n.Q.'.x.e # x c.]._.C.s.y.y.f.Z./.E.L.~._.M G                   ",
"            7 3 P 5 Y ; R O.8.M > O . . O e S x._.S.<.@ A (.(.M # 6.S.].z.V e O . . + 4 B z._.'.7.J 3                   ",
"              7 3 P J P 5 & @ @ ' OX@X@XoX! X * 4.(.S.E e L.D.7 d F.I.2.L X _ oX@X$XOX' X % V z G Y J ; Y 7             ",
"                J ~ g P 5 % ` ;X0XyXuXuXtX6X%XQ X M K.n T L.Z.Y Z E.v . ) &X6XuXuXuXyXqX=X) @ & T J P 3                 ",
"                F S s.G * ` 4XuXqX0X7X7XqXwXuX4X+.. M m.h.T.T.j.c.v X #.5XuXeXqX7X7X7XqXuX2X` * J z ~ J                 ",
"              3 J z.n.T ; ;XuX7XqXqXqXqXqXqX7XtX7X@.X 3._.L.L.(.2.. #.rXrX7XqXqX0XqXqXqX7XuX=X% Y z.V G                 ",
"              G O.[.Z.q ` 0XqXqXqXqXqXqXqXqXqX7XtX4X! % x.(.(.z.$ ` 6XwX7XqXqXqXqXqXqXqXqXwX6X) 3 J.d.J 3               ",
"            L e n._.b.% $.rXqXqXqXqXqXqXqXqXqXtXqXuX%XX S _.'.V X -XuXqXtXwXqXqXqXqXqXqXqXqXwX@.% C.].V F               ",
"            G 3.].}.n.% @.tX8XqXqXqXqXqXqXrX6X,X5XtX5XQ f I.D.e ) 6XtX4X,X0XwX0XwX0XwXqXqXqXwX] * C._.b.r J             ",
"          P P v.(.L.K.~ R 2XtX8XqXqXqXqXwX6X] J _ <XuX] % J.b.% @.yX<XQ % @.7XwX0XwX0XwXqXtX1X# l ~.K.].2.F             ",
"          P h L.I.L.].7.X #.7XrXqXqXqX7XtX,X$ Y O %XtX` e K.Z.> ' uX$XO Y % <XtX0XwX0X0XwX6X@.X 9._.H.(.z.Y P           ",
"          F S _.L.L.Q.D.g $ #.<X7XwXwXwXrX4X) % q -X#XX M (.'.z @ $X=XY % ` 5XwXwXwXwX7X<X#.X z J.E.^.T.L.h P           ",
"          F 9.].H.^.L.}.v.d @ ` +X;X,X1X1X1X*XXXoX#.$ Y z.(.(.f.3 $ #.XXXX*X1X1X1X,X;X+X~ X j n.W.L.~.J.}.V G           ",
"          J y._.J.^.W.(._.m.n * X q ` ] +.' ' _ & O d p._.J.E.(.i.d @ Y ! ' ] +.] ` 9 X F Z M.).(.~.^.J.].5.F           ",
"          J s._.K.E.K.V a.[.S.g.D j > % + > > g n e.A.Q.J.^.T.J.(.N.w.b d > * + * > j D g.S.].{.S L.~.L.].q.G           ",
"          J u._.L.(.v.F h D.].(.F.B.k.j.j.j.m.N.S.T.^.T.^.T.J.>X:XG.W.S.N.m.j.j.j.l.N.F.'.].n.e G n.(.K._.y.G           ",
"          G t.].H.(.x.e J f 9.n.'.].].(.W.W.Q.L.K.K.L.L.J.T.|.eX3XK.K.K.K.J.W.(.(._.].'.n.q.~ G E D.W.H.].9.F           ",
"          F 4._.L.Q.D.e Y P G T O.8.{.C.L.'.).]._.]._._.(._.}.>X:X/._._.].'.}.L.n.s.8.v T F L L s D.~.L._.2.#           ",
"          G M }.L.~.L.j J } E ; G X O % g O.S 4.r.y.f.{.s.{.{.{.f.s.y.r.5.A O.f * O X I P E } G z ~.T.~.'.c G           ",
"          J e C.'.L.(.O.F  ./ + OX=XOX@.Q J X X . . . O O + O O O O . X X # J ! #.OX;X$.+ ( } F A _.L.'.n.q L           ",
"          7 G t.(.K.].9.F W } + @.%X@.-X5X5X1X;X%X$X@XOXXXoXoXXXOX@X$X&X;X1X5X4X=X@.&X] $  .W F t.].H._.0.F 7           ",
"            F x F.~.'.x.3 R X.q 3 7 O $ ` OX=X2XwXuXuXuXuXuXuXuXuXuXuXqX2X&XoX! $ + = & E X.T e b.W.I.A.g G             ",
"            P J e.(.K.Q.z J } ( Y & T E > O O = R ' @.XXoXoXoXoX$.@.' R P O + 0 E Y Y 3 } ( F O.(.K.(.6.J 7             ",
"              J d l.~.).q.G t ../ Y 7 X.| } W E 0 % + + O O + + + + % 7 E W (  .| Y 7 / | E G u._.W.k.e 3               ",
"              7 G n B.W.D.f J } X.} (  . .X.X.X.|  .} } / / / / } } .. .X.X.X.X. .( } ..( J h I.J.B.o.;                 ",
"                T G D B.W.y.F E |  .X.| [ [ u [ [ [ |  .X.X.X.X...| [ [ [ u [ { { X. . .E J a.F.B.D J 5                 ",
"                  3 J <.B.F.v F W X.[ y t 0 Y 3 q w t i { { | [ u t w 0 ; ; q t i ^ | W # M F.B.D G 3                   ",
"                    P J Z B.l.e J W t P P ; t w 7 P P I w y y w 3 P = 9 w w 9 J P t W L s N.N.n & ;                     ",
"                      3 J j k.g.P J ; t a *.=.=.*.%.p T ; = = P q p %.*.=.-.*.a 9 Y G 7 j.j.g F T                       ",
"                        5 G q 6.w.e J p ,.>.1.>.>.>.:.=.a i i a =.:.,.>.>.:.>.>.i J E e.6.P J 7                         ",
"                            3 F j c q P p ;.,.>.1.1.1.>.>.-.:.>.>.1.:.1.>.,.-.i Y r n g G L                             ",
"                              7 G Y T Y T R %.-.,.,.>.>.,.1.>.1.>.>.,.,.-.%.R ; Y e ; G 7                               ",
"                                  7 L 3 3 P ; 7 p &.;.1.1.1.1.1.1.-.&.p E Y ; P Y L 3                                   ",
"                                        P 3 Y Y Y Y R t t u u t E T Y Y P Y J 3                                         ",
"                                                7 L J P ; J J Y P L ; 3                                                 ",
"                                                                                                                        "
};
