/* XPM */
static char *_8ccbd1518a142498aaabd401d134df7lbNRAeFIqgZR79kv[] = {
/* columns rows colors chars-per-pixel */
"60 60 174 2 ",
"   c None",
".  c #001B34",
"X  c #001D38",
"o  c #002433",
"O  c #022836",
"+  c #00233D",
"@  c #032C3A",
"#  c #092D3B",
"$  c #04313E",
"%  c #0B333E",
"&  c #11343E",
"*  c #1E343D",
"=  c #12393D",
"-  c #29373D",
";  c #28363E",
":  c #31363D",
">  c #3D3A3E",
",  c #3B333F",
"<  c #392D3F",
"1  c #46363E",
"2  c #52343D",
"3  c #5C363D",
"4  c #512F3F",
"5  c #6A363E",
"6  c #773539",
"7  c #7A393E",
"8  c #1F423D",
"9  c #24443D",
"0  c #2E4C3D",
"q  c #37503C",
"w  c #3D5B3E",
"e  c #485F3C",
"r  c #46573B",
"t  c #59553E",
"y  c #6E4D3E",
"u  c #4A643C",
"i  c #5D6339",
"p  c #546B3E",
"a  c #5E743F",
"s  c #686C3A",
"d  c #6A7E3E",
"f  c #64793E",
"g  c #747138",
"h  c #002740",
"j  c #012D40",
"k  c #082840",
"l  c #053140",
"z  c #0B3441",
"x  c #153A47",
"c  c #1E3B41",
"v  c #163845",
"b  c #172E40",
"n  c #2E3F42",
"m  c #203140",
"M  c #1B424F",
"N  c #244742",
"B  c #3B4649",
"V  c #364042",
"C  c #244956",
"Z  c #30525E",
"A  c #3C5B65",
"S  c #434242",
"D  c #424849",
"F  c #4C4B4B",
"G  c #4F5045",
"H  c #4B6740",
"J  c #46656E",
"K  c #546E75",
"L  c #883639",
"P  c #85383E",
"I  c #98383E",
"U  c #A53A3C",
"Y  c #AB3B3D",
"T  c #BC3635",
"R  c #B53B3D",
"E  c #BB3C3D",
"W  c #CB3736",
"Q  c #C03C3D",
"!  c #CD3C3C",
"~  c #D43D3C",
"^  c #DA3D3C",
"/  c #E33D3C",
"(  c #EC3E3C",
")  c #F43F3C",
"_  c #FE3F3B",
"`  c #8F4D3D",
"'  c #AC4B3D",
"]  c #B24F3D",
"[  c #867D38",
"{  c #A9783C",
"}  c #D9453D",
"|  c #D95B3C",
" . c #EE413D",
".. c #EB4C3C",
"X. c #E4473C",
"o. c #F4433C",
"O. c #F54C3C",
"+. c #E7583C",
"@. c #F5563C",
"#. c #D06E3C",
"$. c #F7633C",
"%. c #E8753C",
"&. c #F6783C",
"*. c #70843D",
"=. c #7B8A3E",
"-. c #7E8F40",
";. c #808F3D",
":. c #938638",
">. c #87953D",
",. c #8F9A3C",
"<. c #8D9539",
"1. c #969B3B",
"2. c #A08E36",
"3. c #AA9336",
"4. c #BC9C3C",
"5. c #9AA13C",
"6. c #A1A93D",
"7. c #A9AE3D",
"8. c #B6B83C",
"9. c #BCBD3D",
"0. c #B6B13A",
"q. c #F8963C",
"w. c #F2923C",
"e. c #CBAA38",
"r. c #D8B135",
"t. c #D3AD34",
"y. c #F9A53C",
"u. c #EBBF34",
"i. c #E7B735",
"p. c #F3BF3C",
"a. c #C7C53C",
"s. c #CECB3C",
"d. c #D8C839",
"f. c #D4D03C",
"g. c #DCD43B",
"h. c #E9CA37",
"j. c #FCCB32",
"k. c #F9C83B",
"l. c #E2DA3C",
"z. c #E8DF3B",
"x. c #FFDD35",
"c. c #FBD539",
"v. c #ECE23C",
"b. c #FFE236",
"n. c #F2E73C",
"m. c #F6EA3C",
"M. c #FAEC3B",
"N. c #FAE936",
"B. c #FFF532",
"V. c #FFF53A",
"C. c #FFF33A",
"Z. c #FFF93A",
"A. c #BCBD40",
"S. c #FFF140",
"D. c #F5EB5A",
"F. c #F5ED79",
"G. c #F8ED63",
"H. c #617780",
"J. c #627B83",
"K. c #6A838A",
"L. c #7E9399",
"P. c #83979B",
"I. c #98A9AD",
"U. c #A5B3B6",
"Y. c #B2BBBC",
"T. c #F7F18E",
"R. c #F7F1B7",
"E. c #D3D6D6",
"W. c #F3F1C7",
"Q. c #DCDFE1",
"!. c #E1E4E4",
"~. c #F2F3F5",
"^. c white",
"/. c #F3F1E3",
/* pixels */
"                                                                                                                        ",
"                                                          Y ! I R n                                                     ",
"                                                           .Y P X.~ 1 z                                                 ",
"                                                                2 E Q Q %                                               ",
"                                                                Y b { ] 4 l                                             ",
"                                                                  E ..&.} I                                             ",
"                                                                P (  .@.X./ z                                           ",
"                                                                Y ) o.O.o.R m                                           ",
"                                                      R v 5 7 ^ ) o.o.o.o.' R                                           ",
"                                                    j R Y ( ' y o.q.w.o.o.` 6                                           ",
"                              E ( E             Y 3 / X...O.w.@.w.m.n.o.@.t 5                                           ",
"                              1 ! Q R           P  .o.o.q.y.O.q.n.S.m.&.o.: 5         ~ ( %                             ",
"                                E ! ( R       2 ~ O.O.@.O.@.k.m.M.m.m.O.| j z     % Y ( 5 j                             ",
"                                l o. .( z   P 7 +.$.n.M.y.m.M.m.m.M.k.o.` j       3 ~ ! z                               ",
"                              % I ) @./ b   I ^ @.c.M.m.M.M.M.M.m.Z.X.( P       @ } +.Y ,                               ",
"                        j k ( / ) ) &.X.I   Y X.M.S.m.M.M.M.M.M.n.Z.o./ 2       R ' o. ./ n                             ",
"                      j 7  .o.o.$.M.q./ R   P X.C.m.M.M.M.M.M.M.m.V.4.^ 3       ^ ] o.&.] ^ I 3 j                       ",
"                    l 7 o.o.c.M.M.n.M...~ < 1 ( S.m.m.M.M.M.M.M.m.M.m.` ! % j I ( +.O.C.M.e.#.} U l                     ",
"                  % j ) ) O.v.m.M.M.M.p.y / 4 ( z.C.m.M.M.m.M.m.M.m.x.o.o.( ) ) +.C.n.m.m.C.V.V...5 j                   ",
"                  m ) ) o.m.S.M.m.M.n.C.0.< ^ ( =.M.M.M.m.m.S.M.M.m.m.C.C.h.f.m.Z.m.M.m.M.n.m.n.c.X.j                   ",
"                  2 o.) y.m.m.M.M.S.M.n.V.7.; n + 9 s.C.m.M.M.M.M.M.m.m.M.M.C.M.m.W.T.N.m.M.M.m.V.%.b l                 ",
"                  l ( ) k.n.m.M.m.m.M.M.m.V.g.-.e w f.C.m.M.M.m.m.M.V.m.M.M.M.M.D.~.W.G./.F.N.m.S.z.= j                 ",
"                  j 1 o.q.S.M.M.m.m.m.m.m.m.C.Z.v.f.M.C.m.M.M.m.Z.M.s.m.M.M.M.m.m.R.F.F.~.T.B.m.C.z.= z                 ",
"                  % j o.x.m.n.m.C.C.V.V.V.M.n.V.6.+ u f.C.m.M.M.f.B h 7.V.n.M.V.V.V.B.D.R.D.m.n.C.A.j %                 ",
"                    l % 8.Z.Z.S.z.A.7.1.9.v.V.V.s.r + 9 g.C.M.s.= h r d.Z.V.l.8.6.6.9.z.B.M.m.M.V.p j                   ",
"            % z $ % l l z a >.p # o . . o = d s.V.x.[ + f C.C.p + :.x.V.a.f = o . . o % p a.V.M.>.j %                   ",
"              % % l j l j j + X v v & # % O . $ =.C.x.c = m.z.% 9 b.M.*.j o @ o o o O v o @ f w j z j % z %             ",
"                j N 0 l z @ x # o o o o o & # # X p n.i & m.z.z s M.u . o o o o o o o o O z + $ z j $ %                 ",
"                h d 8.j # # o o o o o o o o o # b . p h.t.M.M.r.r.H + O o o o o o o o o o o O @ j w N j                 ",
"              % @ 9.g.z @ o o o O o O o o o @ o o v X =.V.m.m.V.-.. % o o o o o o o o o o o o O z a.a j                 ",
"              j a Z.v.& # o o o o o o o o o o o o o % @ s.C.C.a.O # o o o o o o o o o o o o o # % m.8.j %               ",
"            j = g.V.f.@ o o o o o o o o o o o o o o o . d V.M.a . o o O o o o o o o o o o o o o @ l.Z.a h               ",
"            j =.V.S.g.$ o o o o o o o o o o o o o o o o 9 M.v.= O o o O o o o o o o o o o o o o O <.Z.f.= @             ",
"          l l s.C.n.m.9 @ o o o o o o o o o o o o o o o @ n.f.$ O o o o o o o o o o o o o o o o o u m.V.*.j             ",
"          l 0 m.M.m.V.=.. # o o o o o o o o o o o o o # = n.v.% o o o o o o o o o o o o o o o . *.V.n.C.a.z l           ",
"          h *.V.n.m.C.v.0 @ o o o o o o o o o o o o o o p C.M.r o o O o o o o o o o o o o o o w m.M.M.M.m.0 l           ",
"          j ,.V.n.M.n.S.s.- o o o O O o o o o o o o O @ a.V.C.9.O o o o o o o o o o o o & + q g.M.M.M.m.S.H j           ",
"          j 6.Z.m.M.M.C.C.h.i $ o # o o o o O o o o - 0.V.m.m.V.7.& o o o o o o o o o . + s h.V.C.m.M.m.Z.;.h           ",
"          j 8.V.m.C.m.a 7.Z.x.e.g q # # o % # 0 i 3.j.C.m.M.M.m.B.j.2.i - # # O @ % q g e.b.Z.6.d m.M.m.Z.5.j           ",
"          j 7.V.n.C.f.+ 0 v.V.C.b.j.i.r.r.r.u.j.x.N.C.m.M.m.M.R.T.N.N.x.j.h.r.r.r.h.j.b.V.Z.g.9 j g.C.n.Z.6.j           ",
"          j 5.Z.n.C.a.= $ 9 ,.g.C.Z.V.C.M.C.M.m.n.n.m.m.m.m.D.~.W.n.n.n.m.M.C.C.N.V.Z.C.g.,.N j c v.M.m.Z.,.h           ",
"          h >.V.m.M.v.8 $ $ j = H >.A.l.m.M.V.Z.Z.V.V.V.C.V.S.R.T.B.Z.Z.Z.V.m.n.l.8.<.u z h j l 8 v.M.m.Z.*.h           ",
"          j p S.m.M.n.B l B c $ + o o $ 0 H *.-.5.5.9.A.8.A.9.A.9.8.6.1.=.f H 9 @ o . l l m D j w M.N.m.M.u j           ",
"          j & l.C.n.C.H j F B O K.U.K.J M + + X . . . o o o o o o o . X X h j M K K.Y.K O B D h f V.m.C.g.& @           ",
"          z j 5.C.n.Z.,.+ V D O J I.J U.!.!.E.Y.I.P.L.K.H.J.J.H.K.L.P.I.Y.E.!.Q.U.J I.A @ F N h 1.Z.n.V.1.+ =           ",
"            j r b.M.C.s.l x F & l = o @ C K.U.E.~.^.^.^.^.^.^.^.^.^.^.~.E.I.J.C @ O l j c F & = f.C.M.c.0 j             ",
"            l j 3.M.m.M.w j D B l l = * % o O $ x Z J K J.J.J.J.K J Z x $ o o % c z % % D B j H C.m.M.2.j %             ",
"              @ - h.M.Z.1.h 9 F B z % F F D V m % @ # @ o o X + O O @ % c V B F F l z B F c j 7.V.M.i.= %               ",
"              % j i j.M.v.9 l D F D B F F F F F F F D D B B n B D D F F F F F F F B D F B @ 0 m.M.j.G l                 ",
"                z j g j.V.6.j m F F F F S S , S S V F F F F F D F F S S S > S D S F F F c j 7.b.j.g l %                 ",
"                  % l [ j.b.u + n F S : ; & % % & ; : > S D F r > ; * & $ % & ; > S F n h p x.j.g j %                   ",
"                    l l s j.h.= @ N ; l $ % ; * % $ j % * : : ; % l $ % * * % $ $ ; n l 9 j.j.i l $                     ",
"                      % j q i.e.$ l $ ; 6 T W W T L 3 z l @ $ l & 3 L T W ~ T 6 & z j % r.r.0 j z                       ",
"                        % + & :.2.= j 3 _ )  .) ) ) ) W 6 2 2 6 W ( _ ) ) ( _ ) 2 j c 3.:.@ j %                         ",
"                            % j q u = $ 5 ^ _ ) (  .) ) o.^ ( ) )  .( ) ) _ ~ 2 z = i 0 j j                             ",
"                              % j z % z l x L / _ _ ) ) ) ) ) ( ) ) _ _ ~ L v $ % v @ j z                               ",
"                                  % l z z @ l v 3 U ^  . . . .o.o.~ U 3 c z l $ z l z                                   ",
"                                        $ % z z % z x ; ; > > ; * % z % $ z j %                                         ",
"                                                % l @ l l l j z l l % %                                                 ",
"                                                                                                                        "
};
