/* XPM */
static char *d984e123f2f3466cdce07076785d7603Bhp48TdQmI2fHTsP[] = {
/* columns rows colors chars-per-pixel */
"60 60 175 2 ",
"   c None",
".  c #C8422F",
"X  c #C94431",
"o  c #C94532",
"O  c #C94632",
"+  c #C94732",
"@  c #CA4732",
"#  c #CA4733",
"$  c #CB4B35",
"%  c #CB4B36",
"&  c #CB4C36",
"*  c #CC4E37",
"=  c #CD4E37",
"-  c #CD4E38",
";  c #CD4F38",
":  c #CD5038",
">  c #CD5039",
",  c #CD5139",
"<  c #CE5139",
"1  c #CE523A",
"2  c #CE533A",
"3  c #D9632B",
"4  c #D9642C",
"5  c #D9652C",
"6  c #D9652D",
"7  c #DA652D",
"8  c #D9662D",
"9  c #DA662D",
"0  c #DA662E",
"q  c #DA6830",
"w  c #DB6930",
"e  c #DB6B32",
"r  c #DC6B32",
"t  c #DC6B33",
"y  c #DB6C32",
"u  c #DC6C32",
"i  c #DC6C33",
"p  c #DC6C34",
"a  c #DC6D34",
"s  c #DD6D35",
"d  c #DC6E34",
"f  c #DC6E35",
"g  c #DD6F35",
"h  c #DE743A",
"j  c #DF743A",
"k  c #DF763B",
"l  c #DF753C",
"z  c #DF763C",
"x  c #DF773C",
"c  c #DF763D",
"v  c #DF773D",
"b  c #E0763D",
"n  c #E0773D",
"m  c #D15C40",
"M  c #D25D41",
"N  c #D46244",
"B  c #EA8A26",
"V  c #EA8B27",
"C  c #EA8C28",
"Z  c #EA8C29",
"A  c #EA8C2A",
"S  c #EA8D2A",
"D  c #EB8D2A",
"F  c #EB8D2B",
"G  c #EB8F2D",
"H  c #EB8F2E",
"J  c #EB902F",
"K  c #EC902F",
"L  c #EC912F",
"P  c #EB9030",
"I  c #EB9130",
"U  c #EB9031",
"Y  c #EC9130",
"T  c #EC9131",
"R  c #EC9231",
"E  c #EC9232",
"W  c #EC9332",
"Q  c #EC9333",
"!  c #ED9537",
"~  c #ED9739",
"^  c #ED973A",
"/  c #E2885C",
"(  c #E48C5F",
")  c #EB9B5C",
"_  c #EC9B5D",
"`  c #EC9C5D",
"'  c #EC9E5F",
"]  c #F3AC58",
"[  c #F3AE5B",
"{  c #F3AD5C",
"}  c #F4AF5D",
"|  c #F4AF5E",
" . c #F4B05E",
".. c #F4B05F",
"X. c #E58F61",
"o. c #E59162",
"O. c #E69162",
"+. c #E69263",
"@. c #EC9E60",
"#. c #ED9E60",
"$. c #EC9F60",
"%. c #ED9F60",
"&. c #ED9F61",
"*. c #E99967",
"=. c #E99A68",
"-. c #EA9D6A",
";. c #EA9E6A",
":. c #EB9E6B",
">. c #EDA061",
",. c #EFA565",
"<. c #EFA767",
"1. c #EBA06C",
"2. c #ECA16D",
"3. c #F0A768",
"4. c #F0A868",
"5. c #F0A869",
"6. c #F0A969",
"7. c #F4B060",
"8. c #F5B364",
"9. c #F5B567",
"0. c #F5B568",
"q. c #F5B668",
"w. c #F6B86A",
"e. c #F4B573",
"r. c #F4B474",
"t. c #F4B87B",
"y. c #F9C27A",
"u. c #F8C07E",
"i. c #F8C17E",
"p. c #F9C47D",
"a. c #F9C380",
"s. c #FAC680",
"d. c #F9C483",
"f. c #FAC785",
"g. c #FAC885",
"h. c #FBC885",
"j. c #FBC985",
"k. c #FBCA85",
"l. c #FBC986",
"z. c #FBCA86",
"x. c #FBCB86",
"c. c #FBCA87",
"v. c #FBCB87",
"b. c #FCCB87",
"n. c #FCCC87",
"m. c #FCCB88",
"M. c #FBCC88",
"N. c #FCCC88",
"B. c #FCCD88",
"V. c #FCCC89",
"C. c #FCCD89",
"Z. c #FCCD8A",
"A. c #FCCE8A",
"S. c #FDCF8A",
"D. c #FCCE8B",
"F. c #FCCF8C",
"G. c #FCCF8D",
"H. c #FDCF8D",
"J. c #FDD08B",
"K. c #FDD08C",
"L. c #FDD18C",
"P. c #FDD08D",
"I. c #FED28C",
"U. c #FED38C",
"Y. c #FED28D",
"T. c #FDD08E",
"R. c #FDD08F",
"E. c #FED28E",
"W. c #FED38E",
"Q. c #FED48D",
"!. c #FFD48D",
"~. c #FED58D",
"^. c #FFD58D",
"/. c #FED58E",
"(. c #FFD58E",
/* pixels */
"  ; * ; ; ; ; ; ; ; ; ; ; ; ; ; ; ; ; ; ; ; ; ; ; ; ; ; ; ; ; ; ; ; ; ; ; ; ; ,               P P Y P Y Y Y Y Y Y J P   ",
"; * ; ; ; ; ; ; ; ; ; ; ; ; ; ; ; ; ; ; ; ; ; ; ; ; ; ; ; ; ; ; ; ; ; ; ; ; ; ;               P L P Y Y Y Y Y Y Y P L P ",
"* ; * ; ; ; ; ; ; ; ; ; ; ; ; ; ; ; ; ; ; ; ; ; ; ; ; ; ; ; ; ; ; ; ; ; ; ; ; # *.!.z.m.z.R.| S Y Y Y Y Y Y Y Y Y Y P L ",
"; ; ; ; ; ; ; ; ; ; ; ; ; ; ; ; ; ; ; ; ; ; ; ; ; ; ; ; ; ; ; ; ; ; ; ; ; ; ; O :.!.z.V.z.G.| Z Y Y Y Y Y Y Y Y Y Y Y Y ",
"; ; ; ; ; ; ; ; ; ; ; ; ; ; ; ; ; ; ; ; ; ; ; ; ; ; ; ; ; ; ; ; ; ; ; ; ; ; < @ :.!.z.M.n.W.| Z Y Y Y Y Y Y Y Y Y Y Y Y ",
"; ; ; ; ; ; ; ; ; ; ; ; ; ; ; * ; ; ; ; ; ; ; ; ; ; ; ; ; ; ; ; ; ; ; ; ; ; < O :.!.z.M.z.G.| Z Y Y Y Y Y Y Y Y Y Y Y Y ",
"; * ; ; ; ; ; ; ; ; ; ; ; ; * < ; ; ; ; ; ; ; ; ; ; ; ; ; ; ; ; ; ; ; ; ; ; ; O :.U.z.n.z.G.| Z Y Y Y Y Y Y Y Y Y Y L P ",
"* ; ; ; ; ; ; ; ; ; ; ; ; ; : * ; ; ; ; ; ; ; ; ; ; ; ; ; ; ; ; ; ; ; ; ; ; ; O :.U.z.z.z.W.| Z Y Y Y Y Y Y Y Y Y Y P L ",
"; * < ; : : < < < < < ; : : < < < < < * < < < : < ; : < < < < ; : : < < < ; < + 1.!.z.V.z.W. .S E Y Y Y Y Y Y Y Y U H H ",
"< ; # O O O O O O O @ O O O O @ O @ O O O O O O @ O O O O O @ O O O O O O O + N f.M.n.n.M.V.p.Q S G Z G S S S S G H U Y ",
"    =.:.:.:.:.:.:.:.:.:.:.:.:.:.:.:.:.:.:.:.:.:.:.:.:.:.:.:.:.:.:.:.:.:.:.:.1.d.V.n.V.V.M.z.V.j.0.9.0.9.9.9.9.9.9.9.    ",
"    !.W.!.U.W.!.U.!.!.U.!.U.W.!.U.U.!.!.U.U.!.!.!.!.W.U.U.!.!.U.!.!.U.!.!.!.!.M.z.n.z.V.z.V.M.V.G.G.G.G.G.G.G.G.G.W.    ",
"    z.z.z.z.z.z.z.z.z.z.z.z.z.z.z.z.z.z.z.z.z.z.z.z.z.z.z.z.z.z.z.z.z.z.z.z.z.z.M.n.n.M.m.z.V.z.b.b.z.n.z.n.z.n.b.h.    ",
"    m.m.V.m.V.V.n.z.M.M.V.m.n.V.n.n.M.M.V.V.n.V.V.n.V.M.z.n.V.M.V.M.n.V.V.n.V.V.V.V.n.V.m.b.V.n.n.b.V.b.n.n.M.n.m.b.    ",
"    z.z.z.z.z.z.n.z.z.z.z.V.n.V.V.V.z.V.z.z.z.z.z.z.z.z.z.z.z.z.z.z.z.z.z.z.z.z.z.z.z.z.z.z.z.b.b.z.z.z.z.z.z.z.b.z.    ",
"    W.G.W.G.W.G.W.G.W.G.V.M.M.z.n.z.M.n.V.W.W.W.W.W.W.W.W.W.W.!.W.W.W.W.W.!.W.W.W.W.W.W.W.W.W.W.W.W.W.W.W.W.W.W.W.W.    ",
"    } 7.} 7.} 7. .}  . .y.V.z.M.V.M.z.U.i.%.%.' %.%.' %.%.' %.%.$.$.' ' %.%.' %.%.' %.%.' %.%.' %.' %.' %.' %.' %._     ",
"Y H S S S Z Z Z S Z S S Q i.M.M.n.n.V.i.h 7 7 7 7 4 5 7 7 5 7 4 5 7 7 5 5 7 5 7 7 5 7 4 5 7 7 5 7 5 7 7 7 5 7 7 7 7 i a ",
"Y Y Y Y Y Y Y E Y Y Y Q S  .G.z.b.z.W.5.7 a a a y p p a a a y a i a i i i a a a a a i a a a a a y a a a y a i a p p w a ",
"J Y U Y Y Y Y Y Y Y L L S  .W.z.n.z.W.5.7 a i i t p y a i t a t i i i i i i i i i i i t i i i i a t i i t a i i y y i y ",
"Y Y Y Y Y Y Y Y Y Y Y Y Z | W.z.V.z.W.3.7 i i i i i i i i i i i i i i i i i i i i i i i i i i i t i i i i i i i a i i i ",
"Y Y Y Y Y Y Y Y Y Y Y Y S  .G.z.n.z.W.5.7 a i i i i i i i i i i i i i i i i i i i i i i i i i i i i i i i i i i i i i i ",
"Y Y Y Y Y Y Y Y Y Y Y Y Z | W.z.V.z.W.3.7 a i i i i i i i i i i i i i i i i i i i i i i i i i i i i i i i i i i i i i i ",
"Y Y Y Y Y Y Y Y Y Y Y Y Z | G.z.n.z.W.3.7 a i i i i i i i i i i i i i i i i i i i i i i i i i i i i i i i i i i i i i y ",
"J Y Y Y Y Y Y Y J Y Y Y S  .W.z.M.z.W.5.7 a i t i i i i i i i i i i i i i i i i i i i i i i i i i i i i i i i i t i i w ",
"Y J G G G G G G G G J G B w.G.n.m.z.W.r.7 q w q w w w w w w w w w q w w w w w w w w w q w w w q w w w w w w w w q t t i ",
"  Y ~ ~ ~ ~ ~ ~ ~ ~ ~ ~ ] V.z.z.m.z.z.M.%.c n n n n n b b b b n b b n n b b b b b n b b n n n n n n n b b b b b n h a   ",
"    z.z.z.z.z.z.z.z.z.n.G.n.M.V.V.V.M.z.W.z.z.z.z.z.z.f.k.k.k.k.z.z.z.z.k.k.k.k.k.k.j.j.j.b.z.z.z.z.z.f.k.k.k.k.z.z.    ",
"    V.V.V.M.V.n.M.V.V.M.n.z.n.V.n.n.V.z.z.M.V.M.V.M.V.M.b.n.V.n.M.M.V.M.n.V.M.M.n.n.n.V.V.n.V.M.M.M.M.M.b.n.V.n.M.V.    ",
"    n.z.z.n.M.z.z.M.n.z.z.n.V.M.V.n.n.V.z.M.n.z.z.n.z.M.b.z.z.n.z.n.n.z.z.M.z.n.b.z.n.z.M.z.z.n.M.z.n.n.b.z.M.z.z.M.    ",
"    z.M.n.z.z.M.n.z.z.n.M.z.n.z.z.n.n.z.n.z.z.n.n.z.n.z.z.n.M.z.n.z.z.n.M.z.n.z.V.n.M.V.n.M.V.M.z.M.n.n.n.n.z.M.n.z.    ",
"    n.V.M.V.n.V.n.V.M.V.V.M.n.V.M.V.V.M.n.V.M.V.V.M.n.V.M.V.V.M.V.V.M.n.V.V.V.z.z.V.b.n.n.V.z.z.n.V.M.M.n.V.n.V.n.V.    ",
"    z.z.z.z.z.z.j.j.j.j.j.j.j.j.z.z.j.z.j.j.j.j.j.j.j.j.j.j.j.j.j.j.j.j.z.z.n.W.z.n.m.V.n.z.V.W.z.d.z.z.f.f.z.d.z.M.    ",
"  a h c x x h n n h x n x x x x x c h n x x x n x x x x x n x x x x x x x x h >.M.z.M.M.z.M.n./ m m M M M m M M M 2 <   ",
"i i q w w w w w q w w w w w q w w w w w q w w w w w q w w w w w w w q w w w q 5 e.K.z.M.z.U.2.. ; % % % * % % % % % , < ",
"w i i i i i i i i i i i i i i i i i i i i i i i i i i i i i i i i i i i i i y 7 6.W.z.M.z.!.o.O < ; ; ; ; ; * * * ; * * ",
"i i i i i i i i i i i i i i i i i i i i i i i i i i i i i i i i i i i i i i d q <.W.z.n.z.U.o.O , ; ; ; ; ; ; ; < * ; ; ",
"i i i i i i i i i i i i i i i i i i i i i i i i i i i i i i i i i i i i i i i 7 <.W.z.V.z.W.o.O , ; ; ; ; ; ; ; ; ; ; ; ",
"i i i i i i i i i i i i i i i i i i i i i i a t i i i i i i i i i i i i i i i 5 5.W.z.b.z.!.o.O > , ; ; ; ; ; ; ; ; ; ; ",
"i i i i i i i i i i i i i i i i i i i i i i y p i i i i i i i i i i i i i i d 5 <.W.z.b.z.!.o.O > ; ; ; ; ; ; ; ; ; ; ; ",
"y p w y a a a w i i i i i i i i p y a t i i p y a y p t a y p t i a y p i a y 7 <.W.z.n.z.!.o.O < ; ; ; ; ; ; ; ; * ; * ",
"y p a p a a a p i d a i a a a a p t a a a a p y a p p y a p p t a a a y a a g 5 4.W.z.V.z.!.o.O < ; < < , < > ; < < * ; ",
"a w 7 4 7 5 4 4 9 5 5 5 5 7 7 5 4 4 4 4 7 7 5 7 7 5 7 5 7 5 4 4 7 5 7 4 7 7 7 h i.m.b.n.b.V.t.< X O O O + + o + O O * < ",
"    ) %.' ' %.' $.$.' ' ' $.' $.$.$.$.%.' $.' $.$.' $.$.$.' %.' $.' $.$.' ' >.i.U.b.b.V.V.b.G.t.o.o.o.o.o.o.X.o.o.(     ",
"    /.E.W.W.W.W.W.W.W.W.W.W.W.W.W.W.W.W.W.W.W.W.W.W.W.W.W.W.W.W.W.W.W.W.W.W.W.V.z.n.z.V.n.V.z.U.!.!.!.!.!.!.!.!.!.!.    ",
"    z.M.z.z.z.z.z.z.z.z.z.z.z.z.z.z.z.z.z.z.z.z.z.z.z.z.z.z.z.z.z.z.M.d.z.z.z.z.M.n.V.n.n.z.m.z.z.z.z.z.z.z.z.z.z.z.    ",
"    m.m.n.V.V.m.m.m.V.n.V.V.M.M.V.n.V.V.b.m.m.V.m.m.M.m.M.V.n.n.n.V.m.V.n.V.V.n.V.V.n.V.V.n.m.V.V.n.n.V.V.n.V.V.m.m.    ",
"    z.z.z.z.z.z.z.z.z.z.z.m.z.m.n.V.z.m.z.z.z.z.z.z.z.z.z.z.z.z.z.z.z.z.z.z.z.z.z.z.z.z.z.z.z.z.z.z.z.z.z.z.z.z.z.z.    ",
"    W.W.W.W.W.U.W.W.U.W.M.z.M.z.V.n.n.n.M.!.!.!.W.!.!.U.W.U.U.U.!.!.U.W.U.U.U.!.W.!.!.U.U.!.U.U.!.!.U.U.!.U.U.!.W.!.    ",
"    <.6.<.<.<.<.6.6.<.6.f.V.n.V.V.M.n.V.d.1.:.:.:.:.:.:.:.:.:.:.:.:.:.:.:.:.:.:.:.:.:.:.:.:.:.:.:.:.:.:.:.:.:.:.:.=.    ",
"a a 7 7 7 7 7 7 7 7 7 7 h i.V.z.n.z.V.f.N + + O O @ O O O O @ O O O O O @ O O O O @ O O O O @ O O O @ O O O O O O # ; < ",
"a w a a p a a a a a a a 3 ' !.z.V.z.!.1.. < , , ; < < < : : < < ; < < < < < : : ; < < < * < < < * < < < < < : : ; < * ; ",
"w i i i w a t i i i i a 4 ' W.z.M.z.!.-.# ; ; ; ; ; ; ; ; ; ; ; ; ; ; ; * < * ; ; ; ; ; ; ; ; ; ; ; ; ; * < * ; ; ; ; * ",
"a t i i a a i i i t i a 7 %.W.z.M.M.!.-.O < ; ; ; ; ; ; ; ; ; ; ; ; ; ; : * ; ; ; ; ; ; ; ; ; ; ; ; ; ; : * ; ; ; ; * ; ",
"i i i i i i i i y a y p 7 ' W.z.M.z.!.-.+ ; ; ; ; ; ; ; ; ; ; ; ; ; ; ; ; ; ; ; ; ; ; ; ; ; ; ; ; ; ; ; ; ; ; ; ; ; ; ; ",
"i i i i i i i i p y p p 4 $.W.z.m.z.!.-.# < ; ; ; ; ; ; ; ; ; ; ; ; ; ; ; ; ; ; ; ; ; ; ; ; ; ; ; ; ; ; ; ; ; ; ; ; ; ; ",
"i i i i i i i i i i i a 7 ' W.z.m.z.W.:.O < ; ; ; ; ; ; ; ; ; ; ; ; ; ; ; ; ; ; ; ; ; ; ; ; ; ; ; ; ; ; ; ; ; ; ; ; ; ; ",
"y i i i i i i i i i t a 7 ' W.z.V.z.!.*.O < ; ; ; ; ; ; ; ; ; ; ; ; ; ; ; ; ; ; ; ; ; ; ; ; ; ; ; ; ; ; ; ; ; ; ; ; ; * ",
"a y i i i i i i i a i w w               ; * * * ; ; ; ; ; ; ; ; ; ; ; ; ; ; ; ; ; ; ; ; ; ; ; ; ; ; ; ; ; ; ; ; ; ; * ; ",
"  a w i i i i i i a w a a               < ; * < ; ; ; ; ; ; ; ; ; ; ; ; ; ; ; ; ; ; ; ; ; ; ; ; ; ; ; ; ; ; ; ; ; * ;   "
};
